<svg width="74" height="74" viewBox="0 0 74 74" fill="none" xmlns="http://www.w3.org/2000/svg">
<g filter="url(#filter0_ii_16977_25520)">
<rect y="8.09252" width="66.4017" height="66.4017" rx="6.15549" transform="rotate(-7 0 8.09252)" fill="#4D5FD0"/>
<rect x="0.571648" y="8.53914" width="65.3758" height="65.3758" rx="5.64254" transform="rotate(-7 0.571648 8.53914)" stroke="white" stroke-opacity="0.12" stroke-width="1.02592"/>
<g clip-path="url(#clip0_16977_25520)">
<path d="M22.2501 40.5846L35.2941 38.983L33.2921 22.6779L20.2481 24.2795L22.2501 40.5846ZM23.8517 53.6286L36.8957 52.027L35.6945 42.244L22.6505 43.8456L23.8517 53.6286ZM40.1568 51.6266L53.2008 50.025L51.1988 33.7199L38.1547 35.3216L40.1568 51.6266ZM36.5531 22.2775L37.7543 32.0605L50.7984 30.4589L49.5972 20.6759L36.5531 22.2775Z" fill="white"/>
</g>
</g>
<defs>
<filter id="filter0_ii_16977_25520" x="0" y="-2.07505" width="74" height="78.1501" filterUnits="userSpaceOnUse" color-interpolation-filters="sRGB">
<feFlood flood-opacity="0" result="BackgroundImageFix"/>
<feBlend mode="normal" in="SourceGraphic" in2="BackgroundImageFix" result="shape"/>
<feColorMatrix in="SourceAlpha" type="matrix" values="0 0 0 0 0 0 0 0 0 0 0 0 0 0 0 0 0 0 127 0" result="hardAlpha"/>
<feOffset dy="-2.05183"/>
<feGaussianBlur stdDeviation="4.10366"/>
<feComposite in2="hardAlpha" operator="arithmetic" k2="-1" k3="1"/>
<feColorMatrix type="matrix" values="0 0 0 0 0 0 0 0 0 0 0 0 0 0 0 0 0 0 0.16 0"/>
<feBlend mode="normal" in2="shape" result="effect1_innerShadow_16977_25520"/>
<feColorMatrix in="SourceAlpha" type="matrix" values="0 0 0 0 0 0 0 0 0 0 0 0 0 0 0 0 0 0 127 0" result="hardAlpha"/>
<feOffset dy="2.05183"/>
<feGaussianBlur stdDeviation="4.10366"/>
<feComposite in2="hardAlpha" operator="arithmetic" k2="-1" k3="1"/>
<feColorMatrix type="matrix" values="0 0 0 0 1 0 0 0 0 1 0 0 0 0 1 0 0 0 0.16 0"/>
<feBlend mode="normal" in2="effect1_innerShadow_16977_25520" result="effect2_innerShadow_16977_25520"/>
</filter>
<clipPath id="clip0_16977_25520">
<rect width="38.9848" height="38.9848" fill="white" transform="translate(14.7589 19.9893) scale(1.01132) rotate(-7)"/>
</clipPath>
</defs>
</svg>
