<svg width="79" height="79" viewBox="0 0 79 79" fill="none" xmlns="http://www.w3.org/2000/svg">
<g filter="url(#filter0_ii_16977_25487)">
<rect y="16.6941" width="64.5028" height="64.5028" rx="5.99735" transform="rotate(-15 0 16.6941)" fill="#2C9755"/>
<rect x="0.612102" y="17.0475" width="63.5033" height="63.5033" rx="5.49758" transform="rotate(-15 0.612102 17.0475)" stroke="white" stroke-opacity="0.12" stroke-width="0.999559"/>
<path d="M28.3431 35.2648C27.6301 37.1079 27.3916 39.0997 27.6496 41.0577C27.6732 41.2124 27.6391 41.3703 27.5537 41.5016C27.4684 41.6329 27.3377 41.7284 27.1866 41.7699L21.365 43.3298C21.2798 43.3529 21.1907 43.3582 21.1033 43.3452C21.016 43.3323 20.9323 43.3014 20.8575 43.2545C20.7827 43.2076 20.7185 43.1458 20.6689 43.0729C20.6193 43.0001 20.5853 42.9177 20.5692 42.831C19.9007 39.0826 20.3753 35.2191 21.9316 31.7407C21.969 31.6598 22.0229 31.5876 22.0899 31.5287C22.1569 31.4698 22.2355 31.4256 22.3206 31.3988C22.4058 31.372 22.4956 31.3633 22.5842 31.3732C22.6729 31.3832 22.7585 31.4115 22.8355 31.4564L28.0732 34.4739C28.206 34.5512 28.3063 34.6737 28.3559 34.819C28.4055 34.9642 28.4009 35.1225 28.3431 35.2648Z" fill="white"/>
<path d="M47.5433 22.9025L44.5154 28.1356C44.4373 28.268 44.3142 28.3681 44.1685 28.4177C44.0228 28.4674 43.8641 28.4633 43.7213 28.4062C41.3783 27.5098 38.8104 27.3769 36.3856 28.0266C33.9607 28.6764 31.8033 30.0754 30.2224 32.0232C30.1278 32.1448 29.9924 32.2281 29.8412 32.258C29.69 32.2879 29.5331 32.2623 29.3994 32.1859L24.1606 29.1679C24.0834 29.1238 24.0162 29.0642 23.9633 28.9927C23.9105 28.9212 23.8733 28.8395 23.8539 28.7528C23.8346 28.666 23.8336 28.5762 23.851 28.489C23.8685 28.4019 23.9039 28.3193 23.9552 28.2466C26.5405 24.7018 30.2646 22.1481 34.5059 21.0116C38.7473 19.8752 43.2493 20.2247 47.2606 22.0019C47.3413 22.0393 47.4133 22.0931 47.472 22.1598C47.5307 22.2266 47.5747 22.3049 47.6014 22.3896C47.628 22.4744 47.6365 22.5638 47.6266 22.6521C47.6166 22.7405 47.5882 22.8257 47.5433 22.9025Z" fill="white"/>
<path d="M57.9955 34.5403C60.7268 44.7336 54.6568 55.2639 44.4167 58.0035C35.0048 60.5255 25.2716 55.6207 21.6825 46.7113C21.65 46.6274 21.6356 46.5377 21.6403 46.4479C21.645 46.358 21.6686 46.2702 21.7097 46.1901C21.7507 46.11 21.8083 46.0394 21.8785 45.9831C21.9488 45.9267 22.0302 45.8857 22.1173 45.8629L27.9767 44.2929C28.1225 44.2548 28.277 44.2693 28.413 44.3338C28.549 44.3983 28.6577 44.5087 28.7201 44.6455C29.9969 47.3101 32.2227 49.4033 34.9634 50.5169C37.7041 51.6304 40.7632 51.6845 43.5439 50.6685C48.8067 48.7627 52.0795 43.2914 51.2452 37.7682C50.8126 34.8222 49.2854 32.1476 46.9671 30.2758C46.8458 30.1814 46.7626 30.0464 46.733 29.8956C46.7034 29.7448 46.7293 29.5884 46.806 29.455L49.8338 24.2219C49.878 24.1447 49.9379 24.0776 50.0095 24.0248C50.0812 23.972 50.1631 23.9347 50.25 23.9153C50.3369 23.8959 50.4269 23.8949 50.5142 23.9122C50.6015 23.9295 50.6842 23.9648 50.757 24.0159C54.3131 26.5858 56.87 30.3034 57.9955 34.5403Z" fill="white"/>
</g>
<defs>
<filter id="filter0_ii_16977_25487" x="0" y="-2.01571" width="79" height="83.0314" filterUnits="userSpaceOnUse" color-interpolation-filters="sRGB">
<feFlood flood-opacity="0" result="BackgroundImageFix"/>
<feBlend mode="normal" in="SourceGraphic" in2="BackgroundImageFix" result="shape"/>
<feColorMatrix in="SourceAlpha" type="matrix" values="0 0 0 0 0 0 0 0 0 0 0 0 0 0 0 0 0 0 127 0" result="hardAlpha"/>
<feOffset dy="-1.99912"/>
<feGaussianBlur stdDeviation="3.99824"/>
<feComposite in2="hardAlpha" operator="arithmetic" k2="-1" k3="1"/>
<feColorMatrix type="matrix" values="0 0 0 0 0 0 0 0 0 0 0 0 0 0 0 0 0 0 0.16 0"/>
<feBlend mode="normal" in2="shape" result="effect1_innerShadow_16977_25487"/>
<feColorMatrix in="SourceAlpha" type="matrix" values="0 0 0 0 0 0 0 0 0 0 0 0 0 0 0 0 0 0 127 0" result="hardAlpha"/>
<feOffset dy="1.99912"/>
<feGaussianBlur stdDeviation="3.99824"/>
<feComposite in2="hardAlpha" operator="arithmetic" k2="-1" k3="1"/>
<feColorMatrix type="matrix" values="0 0 0 0 1 0 0 0 0 1 0 0 0 0 1 0 0 0 0.16 0"/>
<feBlend mode="normal" in2="effect1_innerShadow_16977_25487" result="effect2_innerShadow_16977_25487"/>
</filter>
</defs>
</svg>
