<svg width="560" height="276" viewBox="0 0 560 276" fill="none" xmlns="http://www.w3.org/2000/svg">
<g clip-path="url(#clip0_17199_45631)">
<g filter="url(#filter0_ddd_17199_45631)">
<rect x="167.227" y="15.6611" width="113.588" height="113.588" rx="10" fill="white"/>
<rect x="167.727" y="16.1611" width="112.588" height="112.588" rx="9.5" stroke="black" stroke-opacity="0.05"/>
<g clip-path="url(#clip1_17199_45631)">
<path opacity="0.16" d="M195.994 69.5043H216.646C217.82 69.5043 218.946 69.0381 219.776 68.2081C220.605 67.3782 221.072 66.2525 221.072 65.0788V44.4265C221.072 43.2528 220.605 42.1271 219.776 41.2972C218.946 40.4672 217.82 40.001 216.646 40.001H195.994C194.82 40.001 193.695 40.4672 192.865 41.2972C192.035 42.1271 191.568 43.2528 191.568 44.4265V65.0788C191.568 66.2525 192.035 67.3782 192.865 68.2081C193.695 69.0381 194.82 69.5043 195.994 69.5043Z" fill="#00695C"/>
<path d="M198.944 53.2773H213.696C214.087 53.2773 214.462 53.4328 214.739 53.7094C215.015 53.9861 215.171 54.3613 215.171 54.7525C215.171 55.1437 215.015 55.519 214.739 55.7956C214.462 56.0723 214.087 56.2277 213.696 56.2277H198.944C198.553 56.2277 198.177 56.0723 197.901 55.7956C197.624 55.519 197.469 55.1437 197.469 54.7525C197.469 54.3613 197.624 53.9861 197.901 53.7094C198.177 53.4328 198.553 53.2773 198.944 53.2773Z" fill="#00695C"/>
<path opacity="0.16" d="M252.051 40.001H231.398C230.224 40.001 229.099 40.4672 228.269 41.2972C227.439 42.1271 226.973 43.2528 226.973 44.4265V65.0788C226.973 66.2525 227.439 67.3782 228.269 68.2081C229.099 69.0381 230.224 69.5043 231.398 69.5043H252.051C253.224 69.5043 254.35 69.0381 255.18 68.2081C256.01 67.3782 256.476 66.2525 256.476 65.0788V44.4265C256.476 43.2528 256.01 42.1271 255.18 41.2972C254.35 40.4672 253.224 40.001 252.051 40.001Z" fill="#00695C"/>
<path d="M249.1 56.2275H243.199V62.1282C243.199 62.5194 243.044 62.8947 242.767 63.1713C242.491 63.448 242.115 63.6034 241.724 63.6034C241.333 63.6034 240.958 63.448 240.681 63.1713C240.404 62.8947 240.249 62.5194 240.249 62.1282V56.2275H234.348C233.957 56.2275 233.582 56.0721 233.305 55.7955C233.028 55.5188 232.873 55.1436 232.873 54.7524C232.873 54.3611 233.028 53.9859 233.305 53.7093C233.582 53.4326 233.957 53.2772 234.348 53.2772H240.249V47.3765C240.249 46.9853 240.404 46.6101 240.681 46.3334C240.958 46.0568 241.333 45.9014 241.724 45.9014C242.115 45.9014 242.491 46.0568 242.767 46.3334C243.044 46.6101 243.199 46.9853 243.199 47.3765V53.2772H249.1C249.491 53.2772 249.866 53.4326 250.143 53.7093C250.42 53.9859 250.575 54.3611 250.575 54.7524C250.575 55.1436 250.42 55.5188 250.143 55.7955C249.866 56.0721 249.491 56.2275 249.1 56.2275Z" fill="#00695C"/>
<path opacity="0.16" d="M216.646 104.909C217.82 104.909 218.946 104.442 219.776 103.612C220.605 102.782 221.072 101.657 221.072 100.483V79.8308C221.072 78.6571 220.605 77.5314 219.776 76.7015C218.946 75.8715 217.82 75.4053 216.646 75.4053H195.994C194.82 75.4053 193.695 75.8715 192.865 76.7015C192.035 77.5314 191.568 78.6571 191.568 79.8308V100.483C191.568 101.657 192.035 102.782 192.865 103.612C193.695 104.442 194.82 104.909 195.994 104.909H216.646Z" fill="#00695C"/>
<path d="M200.066 85.9816C199.824 85.6994 199.698 85.3364 199.712 84.9651C199.726 84.5938 199.88 84.2417 200.143 83.9789C200.406 83.7162 200.758 83.5623 201.129 83.548C201.5 83.5336 201.863 83.6599 202.146 83.9016L206.32 88.0763L210.495 83.9016C210.777 83.6599 211.14 83.5336 211.512 83.548C211.883 83.5623 212.235 83.7162 212.498 83.9789C212.76 84.2417 212.914 84.5938 212.929 84.9651C212.943 85.3364 212.817 85.6994 212.575 85.9816L208.4 90.1563L212.575 94.331C212.85 94.6074 213.004 94.9813 213.004 95.371C213.004 95.7607 212.85 96.1346 212.575 96.411C212.299 96.6858 211.925 96.84 211.535 96.84C211.145 96.84 210.772 96.6858 210.495 96.411L206.32 92.2363L202.146 96.411C201.869 96.6858 201.495 96.84 201.106 96.84C200.716 96.84 200.342 96.6858 200.066 96.411C199.791 96.1346 199.637 95.7607 199.637 95.371C199.637 94.9813 199.791 94.6074 200.066 94.331L204.24 90.1563L200.066 85.9816Z" fill="#00695C"/>
<path opacity="0.16" d="M252.051 75.4053H231.398C230.224 75.4053 229.099 75.8715 228.269 76.7015C227.439 77.5314 226.973 78.6571 226.973 79.8308V100.483C226.973 101.657 227.439 102.782 228.269 103.612C229.099 104.442 230.224 104.909 231.398 104.909H252.051C253.224 104.909 254.35 104.442 255.18 103.612C256.01 102.782 256.476 101.657 256.476 100.483V79.8308C256.476 78.6571 256.01 77.5314 255.18 76.7015C254.35 75.8715 253.224 75.4053 252.051 75.4053Z" fill="#00695C"/>
<path fill-rule="evenodd" clip-rule="evenodd" d="M234.348 91.6323H249.1C249.491 91.6323 249.866 91.4768 250.143 91.2002C250.42 90.9235 250.575 90.5483 250.575 90.1571C250.575 89.7658 250.42 89.3906 250.143 89.114C249.866 88.8373 249.491 88.6819 249.1 88.6819H234.348C233.957 88.6819 233.582 88.8373 233.305 89.114C233.028 89.3906 232.873 89.7658 232.873 90.1571C232.873 90.5483 233.028 90.9235 233.305 91.2002C233.582 91.4768 233.957 91.6323 234.348 91.6323Z" fill="#00695C"/>
<path fill-rule="evenodd" clip-rule="evenodd" d="M242.544 83.0299C242.301 82.8678 242.016 82.7812 241.724 82.7812C241.333 82.7812 240.958 82.9367 240.681 83.2133C240.404 83.49 240.249 83.8652 240.249 84.2564C240.249 84.5482 240.335 84.8334 240.497 85.076C240.66 85.3186 240.89 85.5076 241.16 85.6193C241.429 85.7309 241.726 85.7602 242.012 85.7032C242.298 85.6463 242.561 85.5058 242.767 85.2995C242.973 85.0932 243.114 84.8304 243.171 84.5442C243.228 84.2581 243.199 83.9614 243.087 83.6919C242.975 83.4223 242.786 83.192 242.544 83.0299Z" fill="#00695C"/>
<path fill-rule="evenodd" clip-rule="evenodd" d="M240.681 97.1009C240.958 97.3775 241.333 97.5329 241.724 97.5329C242.115 97.5329 242.491 97.3775 242.767 97.1009C243.044 96.8242 243.199 96.449 243.199 96.0578C243.199 95.6665 243.044 95.2913 242.767 95.0147C242.491 94.738 242.115 94.5826 241.724 94.5826C241.333 94.5826 240.958 94.738 240.681 95.0147C240.404 95.2913 240.249 95.6665 240.249 96.0578C240.249 96.449 240.404 96.8242 240.681 97.1009Z" fill="#00695C"/>
</g>
<rect x="304.729" y="15.6611" width="113.588" height="113.588" rx="10" fill="white"/>
<rect x="305.229" y="16.1611" width="112.588" height="112.588" rx="9.5" stroke="black" stroke-opacity="0.05"/>
<g clip-path="url(#clip2_17199_45631)">
<rect opacity="0.16" x="329.066" y="40.001" width="64.9074" height="64.9074" rx="32.4537" fill="#00695C"/>
<path d="M348.899 65.2432L341.688 72.4551L348.899 79.667" stroke="#00695C" stroke-width="3.60596" stroke-miterlimit="10" stroke-linecap="round" stroke-linejoin="round"/>
<path d="M374.141 65.2432L381.353 72.4551L374.141 79.667" stroke="#00695C" stroke-width="3.60596" stroke-miterlimit="10" stroke-linecap="round" stroke-linejoin="round"/>
<path d="M365.126 58.0312L357.914 86.879" stroke="#00695C" stroke-width="3.60596" stroke-miterlimit="10" stroke-linecap="round" stroke-linejoin="round"/>
</g>
<rect x="442.229" y="15.6611" width="113.588" height="113.588" rx="10" fill="white"/>
<rect x="442.729" y="16.1611" width="112.588" height="112.588" rx="9.5" stroke="black" stroke-opacity="0.05"/>
<path opacity="0.16" d="M514.263 47.6641C514.127 48.1923 514.055 48.7461 514.055 49.3168C514.055 52.9679 517.014 55.9277 520.666 55.9277C521.236 55.9277 521.79 55.8555 522.318 55.7195V89.1906C521.79 89.0547 521.236 88.9824 520.666 88.9824C517.014 88.9824 514.055 91.9422 514.055 95.5933C514.055 96.164 514.127 96.7178 514.263 97.2461H480.792C480.928 96.7178 481 96.164 481 95.5933C481 91.9422 478.04 88.9824 474.389 88.9824C473.818 88.9824 473.265 89.0547 472.736 89.1906V55.7195C473.265 55.8555 473.818 55.9277 474.389 55.9277C478.04 55.9277 481 52.9679 481 49.3168C481 48.7461 480.928 48.1923 480.792 47.6641H514.263Z" fill="#00695C"/>
<path opacity="0.4" d="M514.108 94.767C514.074 95.0378 514.055 95.3134 514.055 95.5933C514.055 96.164 514.127 96.7178 514.263 97.2461H480.792C480.928 96.7178 481 96.164 481 95.5933C481 95.3134 480.981 95.0378 480.947 94.767H514.108ZM472.736 55.7195C473.265 55.8555 473.818 55.9277 474.389 55.9277C474.669 55.9277 474.945 55.9082 475.215 55.8745V89.0341C474.945 89.0003 474.669 88.9824 474.389 88.9824C473.818 88.9824 473.265 89.0547 472.736 89.1906V55.7195ZM522.318 89.1906C521.79 89.0547 521.236 88.9824 520.666 88.9824C520.386 88.9824 520.11 89.0003 519.839 89.0341V55.8745C520.11 55.9082 520.386 55.9277 520.666 55.9277C521.236 55.9277 521.79 55.8555 522.318 55.7195V89.1906ZM514.263 47.6641C514.127 48.1923 514.055 48.7461 514.055 49.3168C514.055 49.5967 514.074 49.8724 514.108 50.1432H480.947C480.981 49.8724 481 49.5967 481 49.3168C481 48.7461 480.928 48.1923 480.792 47.6641H514.263Z" fill="#00695C"/>
<path d="M525.623 49.3166C525.623 46.5783 523.404 44.3584 520.665 44.3584C517.927 44.3584 515.707 46.5783 515.707 49.3166C515.707 52.0549 517.927 54.2748 520.665 54.2748C523.404 54.2748 525.623 52.0549 525.623 49.3166Z" fill="#00695C"/>
<path d="M525.623 95.593C525.623 92.8546 523.404 90.6348 520.665 90.6348C517.927 90.6348 515.707 92.8546 515.707 95.593C515.707 98.3313 517.927 100.551 520.665 100.551C523.404 100.551 525.623 98.3313 525.623 95.593Z" fill="#00695C"/>
<path d="M479.346 95.593C479.346 92.8546 477.126 90.6348 474.388 90.6348C471.65 90.6348 469.43 92.8546 469.43 95.593C469.43 98.3313 471.65 100.551 474.388 100.551C477.126 100.551 479.346 98.3313 479.346 95.593Z" fill="#00695C"/>
<path d="M479.346 49.3166C479.346 46.5783 477.126 44.3584 474.388 44.3584C471.65 44.3584 469.43 46.5783 469.43 49.3166C469.43 52.0549 471.65 54.2748 474.388 54.2748C477.126 54.2748 479.346 52.0549 479.346 49.3166Z" fill="#00695C"/>
<rect x="442.002" y="147.185" width="113.588" height="113.588" rx="10" fill="white"/>
<rect x="442.502" y="147.685" width="112.588" height="112.588" rx="9.5" stroke="black" stroke-opacity="0.05"/>
<g clip-path="url(#clip3_17199_45631)">
<rect x="486.469" y="174.282" width="26.4437" height="19.8328" rx="1.65273" fill="#00695C"/>
<path opacity="0.16" fill-rule="evenodd" clip-rule="evenodd" d="M499.441 194.321C499.673 194.321 499.904 194.376 500.114 194.486C500.198 194.53 500.279 194.584 500.354 194.646C500.392 194.676 500.429 194.71 500.464 194.745L505.422 199.703C505.986 200.268 505.986 201.183 505.422 201.748C504.857 202.312 503.942 202.313 503.377 201.748L500.94 199.312C501.199 203.769 502.382 206.458 503.886 208.174C505.605 210.135 507.937 211.052 510.532 211.695C511.864 212.026 513.102 212.25 514.442 212.548C515.72 212.832 517.021 213.172 518.175 213.703C519.345 214.242 520.43 215.008 521.208 216.179C521.988 217.353 522.373 218.803 522.373 220.559C522.373 221.357 521.725 222.004 520.927 222.004C520.128 222.004 519.481 221.357 519.48 220.559C519.48 219.232 519.194 218.374 518.799 217.779C518.402 217.182 517.808 216.718 516.965 216.33C516.105 215.934 515.055 215.647 513.814 215.371C512.637 215.109 511.189 214.839 509.836 214.503C507.06 213.814 504.02 212.714 501.711 210.08C501.422 209.75 501.147 209.4 500.888 209.027V227.169C500.888 227.967 500.24 228.615 499.441 228.615C498.643 228.615 497.995 227.968 497.995 227.169V209.027C497.736 209.4 497.461 209.75 497.172 210.08C494.863 212.714 491.823 213.814 489.047 214.503C487.694 214.839 486.246 215.109 485.068 215.371C483.828 215.647 482.778 215.934 481.918 216.33C481.075 216.718 480.481 217.182 480.084 217.779C479.689 218.374 479.402 219.232 479.402 220.559C479.402 221.357 478.754 222.004 477.956 222.004C477.158 222.004 476.51 221.357 476.51 220.559C476.51 218.803 476.895 217.353 477.675 216.179C478.453 215.008 479.537 214.242 480.708 213.703C481.862 213.172 483.163 212.832 484.44 212.548C485.78 212.25 487.019 212.026 488.351 211.695C490.945 211.052 493.278 210.135 494.997 208.174C496.501 206.458 497.683 203.768 497.941 199.312L495.506 201.748C494.941 202.313 494.026 202.312 493.461 201.748C492.896 201.183 492.896 200.268 493.461 199.703L498.419 194.745C498.701 194.463 499.071 194.321 499.441 194.321Z" fill="#00695C"/>
<path d="M497.827 217.715C498.442 217.099 499.44 217.099 500.056 217.715L506.743 224.402C507.359 225.018 507.359 226.016 506.743 226.631L500.056 233.319C499.44 233.934 498.442 233.934 497.827 233.319L491.139 226.631C490.524 226.016 490.524 225.018 491.139 224.402L497.827 217.715Z" fill="#00695C"/>
<path d="M476.342 217.715C476.958 217.099 477.956 217.099 478.572 217.715L485.259 224.402C485.875 225.018 485.875 226.016 485.259 226.631L478.572 233.319C477.956 233.934 476.958 233.934 476.342 233.319L469.655 226.631C469.039 226.016 469.039 225.018 469.655 224.402L476.342 217.715Z" fill="#00695C"/>
<path d="M519.313 217.715C519.929 217.099 520.927 217.099 521.542 217.715L528.23 224.402C528.845 225.018 528.845 226.016 528.23 226.631L521.542 233.319C520.927 233.934 519.929 233.934 519.313 233.319L512.626 226.631C512.01 226.016 512.01 225.018 512.626 224.402L519.313 217.715Z" fill="#00695C"/>
</g>
<rect x="167" y="147.185" width="113.588" height="113.588" rx="10" fill="white"/>
<rect x="167.5" y="147.685" width="112.588" height="112.588" rx="9.5" stroke="black" stroke-opacity="0.05"/>
<g clip-path="url(#clip4_17199_45631)">
<path opacity="0.16" d="M220.102 184.742L203.662 201.183" stroke="#00695C" stroke-width="3.65341" stroke-linecap="round"/>
<path opacity="0.16" d="M227.409 184.742L243.85 201.183" stroke="#00695C" stroke-width="3.65341" stroke-linecap="round"/>
<path d="M199.015 196.212C199.695 195.532 200.798 195.532 201.479 196.212L208.87 203.604C209.55 204.284 209.55 205.387 208.87 206.068L201.479 213.459C200.798 214.139 199.695 214.139 199.015 213.459L191.624 206.068C190.943 205.387 190.943 204.284 191.624 203.604L199.015 196.212Z" fill="#00695C"/>
<path d="M246.509 196.212C247.189 195.532 248.292 195.532 248.973 196.212L256.364 203.604C257.045 204.284 257.045 205.387 256.364 206.068L248.973 213.459C248.292 214.139 247.189 214.139 246.509 213.459L239.118 206.068C238.437 205.387 238.437 204.284 239.118 203.604L246.509 196.212Z" fill="#00695C"/>
<path d="M222.763 172.465C223.443 171.785 224.546 171.785 225.227 172.465L232.618 179.857C233.298 180.537 233.298 181.64 232.618 182.321L225.227 189.712C224.546 190.392 223.443 190.392 222.763 189.712L215.372 182.321C214.691 181.64 214.691 180.537 215.372 179.857L222.763 172.465Z" fill="#00695C"/>
<path fill-rule="evenodd" clip-rule="evenodd" d="M225.337 208.608C225.702 208.608 226.068 208.852 226.189 209.218L226.737 210.861C226.798 211.166 227.042 211.41 227.347 211.471C228.199 211.714 228.99 212.018 229.721 212.444C229.964 212.566 230.33 212.566 230.573 212.444L232.096 211.714C232.461 211.531 232.826 211.592 233.131 211.896L235.201 213.967C235.506 214.21 235.566 214.637 235.384 215.002L234.653 216.524C234.471 216.829 234.532 217.133 234.653 217.377C235.079 218.107 235.383 218.899 235.627 219.751C235.749 220.055 235.932 220.239 236.236 220.36L237.88 220.908C238.245 221.03 238.489 221.395 238.489 221.761V224.684C238.489 225.049 238.245 225.414 237.88 225.536L236.236 226.084C235.932 226.145 235.688 226.389 235.627 226.693C235.383 227.546 235.079 228.337 234.653 229.067C234.532 229.311 234.532 229.676 234.653 229.92L235.323 231.442C235.506 231.808 235.445 232.173 235.141 232.478L233.07 234.548C232.827 234.852 232.4 234.913 232.035 234.73L230.513 234C230.208 233.817 229.904 233.878 229.66 234C228.929 234.426 228.138 234.73 227.285 234.974C226.981 235.095 226.799 235.279 226.677 235.583L226.129 237.227C226.007 237.592 225.642 237.836 225.276 237.836H222.354C221.988 237.836 221.623 237.592 221.501 237.227L220.953 235.583C220.892 235.279 220.648 235.035 220.344 234.974C219.491 234.73 218.699 234.426 217.969 234C217.725 233.878 217.361 233.878 217.117 234L215.595 234.73C215.229 234.913 214.864 234.852 214.56 234.548L212.489 232.478C212.185 232.234 212.124 231.808 212.307 231.442L213.098 229.92C213.28 229.615 213.219 229.311 213.098 229.067C212.672 228.337 212.368 227.546 212.124 226.693C212.002 226.389 211.819 226.206 211.515 226.084L209.871 225.536C209.506 225.414 209.262 225.049 209.262 224.684V221.761C209.262 221.395 209.506 221.03 209.871 220.908L211.515 220.36C211.819 220.299 212.063 220.055 212.124 219.751C212.368 218.899 212.672 218.107 213.098 217.377C213.219 217.133 213.219 216.768 213.098 216.524L212.307 215.002C212.185 214.637 212.246 214.211 212.489 213.906L214.56 211.836C214.864 211.592 215.29 211.532 215.655 211.653L217.178 212.444C217.482 212.627 217.787 212.566 218.03 212.444C218.761 212.018 219.552 211.714 220.404 211.471C220.709 211.349 220.892 211.166 221.014 210.861L221.562 209.218C221.683 208.852 222.049 208.608 222.414 208.608H225.337ZM227.274 231.306H227.275H227.274ZM223.876 215.915C219.841 215.915 216.568 219.187 216.568 223.223C216.569 227.258 219.841 230.529 223.876 230.529C227.911 230.529 231.182 227.258 231.183 223.223C231.183 219.187 227.911 215.915 223.876 215.915Z" fill="#00695C"/>
</g>
<rect x="304.5" y="147.185" width="113.588" height="113.588" rx="10" fill="white"/>
<rect x="305" y="147.685" width="112.588" height="112.588" rx="9.5" stroke="black" stroke-opacity="0.05"/>
<g clip-path="url(#clip5_17199_45631)">
<path fill-rule="evenodd" clip-rule="evenodd" d="M362.251 189.759C362.616 189.759 362.982 190.003 363.104 190.368L363.651 192.012C363.712 192.316 363.956 192.56 364.261 192.621C365.113 192.865 365.904 193.169 366.635 193.595C366.878 193.716 367.244 193.716 367.487 193.595L369.01 192.864C369.375 192.682 369.74 192.742 370.045 193.047L372.115 195.117C372.42 195.361 372.481 195.787 372.298 196.152L371.567 197.675C371.385 197.979 371.446 198.284 371.567 198.527C371.993 199.258 372.298 200.049 372.541 200.901C372.663 201.206 372.846 201.389 373.15 201.511L374.794 202.059C375.159 202.18 375.403 202.546 375.403 202.911V205.834C375.403 206.199 375.159 206.565 374.794 206.687L373.15 207.234C372.846 207.295 372.602 207.538 372.541 207.843C372.297 208.695 371.994 209.487 371.567 210.218C371.446 210.461 371.446 210.827 371.567 211.07L372.237 212.593C372.42 212.958 372.359 213.324 372.055 213.628L369.984 215.698C369.741 216.003 369.314 216.063 368.949 215.881L367.427 215.15C367.122 214.968 366.818 215.029 366.574 215.15C365.844 215.577 365.052 215.88 364.199 216.124C363.895 216.246 363.713 216.429 363.591 216.733L363.043 218.377C362.921 218.742 362.556 218.986 362.19 218.986H359.268C358.902 218.986 358.537 218.742 358.415 218.377L357.867 216.733C357.806 216.429 357.562 216.185 357.258 216.124C356.405 215.88 355.613 215.577 354.883 215.15C354.639 215.029 354.275 215.029 354.031 215.15L352.509 215.881C352.144 216.063 351.778 216.002 351.474 215.698L349.403 213.628C349.099 213.384 349.038 212.958 349.221 212.593L350.012 211.07C350.194 210.766 350.133 210.461 350.012 210.218C349.586 209.487 349.282 208.695 349.038 207.843C348.916 207.538 348.733 207.356 348.429 207.234L346.785 206.687C346.42 206.565 346.176 206.199 346.176 205.834V202.911C346.176 202.546 346.42 202.18 346.785 202.059L348.429 201.511C348.733 201.45 348.977 201.206 349.038 200.901C349.282 200.049 349.586 199.258 350.012 198.527C350.133 198.284 350.133 197.918 350.012 197.675L349.221 196.152C349.099 195.787 349.16 195.361 349.403 195.057L351.474 192.986C351.778 192.743 352.204 192.682 352.569 192.804L354.092 193.595C354.396 193.777 354.701 193.717 354.944 193.595C355.675 193.169 356.466 192.865 357.318 192.621C357.623 192.499 357.806 192.316 357.928 192.012L358.476 190.368C358.597 190.003 358.963 189.759 359.328 189.759H362.251ZM360.79 197.065C356.755 197.065 353.483 200.337 353.482 204.372C353.482 208.408 356.755 211.68 360.79 211.68C364.825 211.679 368.097 208.407 368.097 204.372C368.096 200.337 364.825 197.066 360.79 197.065Z" fill="#00695C"/>
<circle opacity="0.16" cx="360.67" cy="204.253" r="27.4006" stroke="#00695C" stroke-width="3.65341"/>
<circle cx="360.67" cy="176.852" r="5.48012" fill="#00695C"/>
<circle cx="333.269" cy="204.253" r="5.48012" fill="#00695C"/>
<circle cx="360.67" cy="231.653" r="5.48012" fill="#00695C"/>
<circle cx="388.07" cy="204.253" r="5.48012" fill="#00695C"/>
</g>
</g>
</g>
<defs>
<filter id="filter0_ddd_17199_45631" x="160" y="13.6611" width="402.816" height="266.111" filterUnits="userSpaceOnUse" color-interpolation-filters="sRGB">
<feFlood flood-opacity="0" result="BackgroundImageFix"/>
<feColorMatrix in="SourceAlpha" type="matrix" values="0 0 0 0 0 0 0 0 0 0 0 0 0 0 0 0 0 0 127 0" result="hardAlpha"/>
<feOffset dy="1"/>
<feGaussianBlur stdDeviation="1.5"/>
<feColorMatrix type="matrix" values="0 0 0 0 0 0 0 0 0 0 0 0 0 0 0 0 0 0 0.03 0"/>
<feBlend mode="normal" in2="BackgroundImageFix" result="effect1_dropShadow_17199_45631"/>
<feColorMatrix in="SourceAlpha" type="matrix" values="0 0 0 0 0 0 0 0 0 0 0 0 0 0 0 0 0 0 127 0" result="hardAlpha"/>
<feOffset dy="5"/>
<feGaussianBlur stdDeviation="2.5"/>
<feColorMatrix type="matrix" values="0 0 0 0 0 0 0 0 0 0 0 0 0 0 0 0 0 0 0.03 0"/>
<feBlend mode="normal" in2="effect1_dropShadow_17199_45631" result="effect2_dropShadow_17199_45631"/>
<feColorMatrix in="SourceAlpha" type="matrix" values="0 0 0 0 0 0 0 0 0 0 0 0 0 0 0 0 0 0 127 0" result="hardAlpha"/>
<feOffset dy="12"/>
<feGaussianBlur stdDeviation="3.5"/>
<feColorMatrix type="matrix" values="0 0 0 0 0 0 0 0 0 0 0 0 0 0 0 0 0 0 0.02 0"/>
<feBlend mode="normal" in2="effect2_dropShadow_17199_45631" result="effect3_dropShadow_17199_45631"/>
<feBlend mode="normal" in="SourceGraphic" in2="effect3_dropShadow_17199_45631" result="shape"/>
</filter>
<clipPath id="clip0_17199_45631">
<rect width="560" height="276" fill="white"/>
</clipPath>
<clipPath id="clip1_17199_45631">
<rect width="64.9074" height="64.9074" fill="white" transform="translate(191.568 40.001)"/>
</clipPath>
<clipPath id="clip2_17199_45631">
<rect width="64.9074" height="64.9074" fill="white" transform="translate(329.066 40.001)"/>
</clipPath>
<clipPath id="clip3_17199_45631">
<rect width="59.4984" height="59.4984" fill="white" transform="translate(469.691 174.282)"/>
</clipPath>
<clipPath id="clip4_17199_45631">
<rect width="65.7614" height="65.7614" fill="white" transform="translate(190.875 171.955)"/>
</clipPath>
<clipPath id="clip5_17199_45631">
<rect width="65.7614" height="65.7614" fill="white" transform="translate(327.789 171.372)"/>
</clipPath>
</defs>
</svg>
