<svg width="621" height="300" viewBox="0 0 621 300" fill="none" xmlns="http://www.w3.org/2000/svg">
<g filter="url(#filter0_ddd_17135_46044)">
<rect x="191.532" y="3.06197" width="370.297" height="276.04" rx="10.0976" fill="white"/>
<rect x="191.001" y="2.5312" width="371.359" height="277.101" rx="10.6283" stroke="black" stroke-opacity="0.05" stroke-width="1.06154"/>
<path d="M217.575 52.3798V59.5799H216.665V53.5159L214.831 54.1848V53.3634L217.433 52.3798H217.575ZM225.082 55.429V56.5209C225.082 57.1077 225.029 57.6028 224.924 58.0061C224.819 58.4094 224.668 58.734 224.472 58.9799C224.275 59.2258 224.037 59.4045 223.759 59.516C223.483 59.6242 223.172 59.6783 222.824 59.6783C222.549 59.6783 222.295 59.6438 222.062 59.575C221.829 59.5061 221.619 59.3963 221.432 59.2455C221.249 59.0914 221.091 58.8914 220.96 58.6455C220.829 58.3996 220.729 58.1012 220.66 57.7504C220.591 57.3996 220.557 56.9897 220.557 56.5209V55.429C220.557 54.8421 220.609 54.3503 220.714 53.9536C220.822 53.5569 220.975 53.2388 221.172 52.9995C221.368 52.7569 221.604 52.5831 221.88 52.4782C222.159 52.3733 222.47 52.3208 222.814 52.3208C223.093 52.3208 223.349 52.3552 223.582 52.4241C223.818 52.4896 224.027 52.5962 224.211 52.7438C224.395 52.888 224.55 53.0815 224.678 53.3241C224.809 53.5634 224.909 53.8569 224.978 54.2044C225.047 54.552 225.082 54.9602 225.082 55.429ZM224.167 56.6684V55.2766C224.167 54.9553 224.147 54.6733 224.108 54.4307C224.072 54.1848 224.018 53.9749 223.945 53.8011C223.873 53.6274 223.782 53.4864 223.67 53.3782C223.562 53.27 223.436 53.1913 223.291 53.1421C223.15 53.0897 222.991 53.0634 222.814 53.0634C222.598 53.0634 222.406 53.1044 222.239 53.1864C222.072 53.2651 221.931 53.3913 221.816 53.5651C221.704 53.7388 221.619 53.9667 221.56 54.2487C221.501 54.5307 221.472 54.8733 221.472 55.2766V56.6684C221.472 56.9897 221.49 57.2733 221.526 57.5192C221.565 57.7651 221.623 57.9782 221.698 58.1586C221.773 58.3356 221.865 58.4815 221.973 58.5963C222.082 58.711 222.206 58.7963 222.347 58.852C222.491 58.9045 222.65 58.9307 222.824 58.9307C223.047 58.9307 223.242 58.8881 223.409 58.8028C223.577 58.7176 223.716 58.5848 223.827 58.4045C223.942 58.2209 224.027 57.9864 224.083 57.7012C224.139 57.4127 224.167 57.0684 224.167 56.6684ZM231.083 55.429V56.5209C231.083 57.1077 231.031 57.6028 230.926 58.0061C230.821 58.4094 230.67 58.734 230.473 58.9799C230.276 59.2258 230.039 59.4045 229.76 59.516C229.485 59.6242 229.173 59.6783 228.826 59.6783C228.55 59.6783 228.296 59.6438 228.063 59.575C227.83 59.5061 227.621 59.3963 227.434 59.2455C227.25 59.0914 227.093 58.8914 226.962 58.6455C226.83 58.3996 226.73 58.1012 226.662 57.7504C226.593 57.3996 226.558 56.9897 226.558 56.5209V55.429C226.558 54.8421 226.611 54.3503 226.716 53.9536C226.824 53.5569 226.976 53.2388 227.173 52.9995C227.37 52.7569 227.606 52.5831 227.881 52.4782C228.16 52.3733 228.471 52.3208 228.816 52.3208C229.094 52.3208 229.35 52.3552 229.583 52.4241C229.819 52.4896 230.029 52.5962 230.212 52.7438C230.396 52.888 230.552 53.0815 230.68 53.3241C230.811 53.5634 230.911 53.8569 230.98 54.2044C231.049 54.552 231.083 54.9602 231.083 55.429ZM230.168 56.6684V55.2766C230.168 54.9553 230.149 54.6733 230.109 54.4307C230.073 54.1848 230.019 53.9749 229.947 53.8011C229.875 53.6274 229.783 53.4864 229.671 53.3782C229.563 53.27 229.437 53.1913 229.293 53.1421C229.152 53.0897 228.993 53.0634 228.816 53.0634C228.599 53.0634 228.408 53.1044 228.24 53.1864C228.073 53.2651 227.932 53.3913 227.817 53.5651C227.706 53.7388 227.621 53.9667 227.562 54.2487C227.503 54.5307 227.473 54.8733 227.473 55.2766V56.6684C227.473 56.9897 227.491 57.2733 227.527 57.5192C227.567 57.7651 227.624 57.9782 227.699 58.1586C227.775 58.3356 227.867 58.4815 227.975 58.5963C228.083 58.711 228.208 58.7963 228.348 58.852C228.493 58.9045 228.652 58.9307 228.826 58.9307C229.049 58.9307 229.244 58.8881 229.411 58.8028C229.578 58.7176 229.717 58.5848 229.829 58.4045C229.944 58.2209 230.029 57.9864 230.085 57.7012C230.14 57.4127 230.168 57.0684 230.168 56.6684ZM232.511 54.1749V53.7962C232.511 53.5241 232.57 53.2765 232.688 53.0536C232.806 52.8306 232.974 52.6519 233.194 52.5175C233.414 52.3831 233.674 52.3159 233.976 52.3159C234.284 52.3159 234.547 52.3831 234.763 52.5175C234.983 52.6519 235.152 52.8306 235.27 53.0536C235.388 53.2765 235.447 53.5241 235.447 53.7962V54.1749C235.447 54.4405 235.388 54.6848 235.27 54.9077C235.155 55.1307 234.988 55.3094 234.768 55.4438C234.552 55.5782 234.291 55.6454 233.986 55.6454C233.681 55.6454 233.417 55.5782 233.194 55.4438C232.974 55.3094 232.806 55.1307 232.688 54.9077C232.57 54.6848 232.511 54.4405 232.511 54.1749ZM233.194 53.7962V54.1749C233.194 54.3257 233.222 54.4684 233.278 54.6028C233.337 54.7372 233.425 54.8471 233.543 54.9323C233.661 55.0143 233.809 55.0553 233.986 55.0553C234.163 55.0553 234.309 55.0143 234.424 54.9323C234.538 54.8471 234.624 54.7372 234.679 54.6028C234.735 54.4684 234.763 54.3257 234.763 54.1749V53.7962C234.763 53.6421 234.734 53.4979 234.674 53.3634C234.619 53.2257 234.532 53.1159 234.414 53.0339C234.299 52.9487 234.153 52.906 233.976 52.906C233.802 52.906 233.656 52.9487 233.538 53.0339C233.424 53.1159 233.337 53.2257 233.278 53.3634C233.222 53.4979 233.194 53.6421 233.194 53.7962ZM235.997 58.2078V57.8241C235.997 57.5553 236.056 57.3094 236.175 57.0864C236.293 56.8635 236.461 56.6848 236.681 56.5504C236.901 56.4159 237.161 56.3487 237.463 56.3487C237.771 56.3487 238.034 56.4159 238.25 56.5504C238.47 56.6848 238.638 56.8635 238.757 57.0864C238.875 57.3094 238.934 57.5553 238.934 57.8241V58.2078C238.934 58.4766 238.875 58.7225 238.757 58.9455C238.642 59.1684 238.475 59.3471 238.255 59.4815C238.038 59.616 237.778 59.6832 237.473 59.6832C237.168 59.6832 236.906 59.616 236.686 59.4815C236.466 59.3471 236.296 59.1684 236.175 58.9455C236.056 58.7225 235.997 58.4766 235.997 58.2078ZM236.681 57.8241V58.2078C236.681 58.3586 236.709 58.5028 236.765 58.6406C236.824 58.775 236.912 58.8848 237.03 58.9701C237.148 59.052 237.296 59.093 237.473 59.093C237.65 59.093 237.796 59.052 237.911 58.9701C238.029 58.8848 238.116 58.775 238.171 58.6406C238.227 58.5061 238.255 58.3619 238.255 58.2078V57.8241C238.255 57.67 238.225 57.5258 238.166 57.3914C238.111 57.2569 238.024 57.1487 237.906 57.0668C237.791 56.9815 237.643 56.9389 237.463 56.9389C237.289 56.9389 237.143 56.9815 237.025 57.0668C236.911 57.1487 236.824 57.2569 236.765 57.3914C236.709 57.5258 236.681 57.67 236.681 57.8241ZM237.689 53.4372L234.193 59.034L233.681 58.7094L237.178 53.1126L237.689 53.4372Z" fill="black" fill-opacity="0.54"/>
<path d="M225.144 94.1777C225.144 94.6138 225.042 94.9843 224.839 95.2892C224.639 95.5909 224.367 95.8204 224.022 95.9778C223.681 96.1351 223.296 96.2138 222.867 96.2138C222.437 96.2138 222.05 96.1351 221.706 95.9778C221.362 95.8204 221.09 95.5909 220.89 95.2892C220.69 94.9843 220.59 94.6138 220.59 94.1777C220.59 93.8925 220.644 93.6318 220.752 93.3958C220.863 93.1564 221.019 92.9482 221.219 92.7712C221.422 92.5941 221.662 92.458 221.937 92.363C222.216 92.2646 222.522 92.2154 222.857 92.2154C223.296 92.2154 223.688 92.3007 224.032 92.4712C224.376 92.6384 224.647 92.8695 224.844 93.1646C225.044 93.4597 225.144 93.7974 225.144 94.1777ZM224.229 94.1581C224.229 93.8925 224.172 93.6581 224.057 93.4548C223.942 93.2482 223.781 93.0876 223.575 92.9728C223.368 92.858 223.129 92.8007 222.857 92.8007C222.578 92.8007 222.337 92.858 222.134 92.9728C221.934 93.0876 221.778 93.2482 221.667 93.4548C221.555 93.6581 221.499 93.8925 221.499 94.1581C221.499 94.4335 221.553 94.6695 221.662 94.8663C221.773 95.0597 221.931 95.2089 222.134 95.3138C222.34 95.4155 222.585 95.4663 222.867 95.4663C223.149 95.4663 223.391 95.4155 223.594 95.3138C223.798 95.2089 223.954 95.0597 224.062 94.8663C224.173 94.6695 224.229 94.4335 224.229 94.1581ZM224.976 90.8187C224.976 91.1662 224.885 91.4793 224.701 91.758C224.517 92.0367 224.267 92.2564 223.949 92.4171C223.631 92.5777 223.27 92.658 222.867 92.658C222.457 92.658 222.091 92.5777 221.77 92.4171C221.452 92.2564 221.203 92.0367 221.022 91.758C220.842 91.4793 220.752 91.1662 220.752 90.8187C220.752 90.4023 220.842 90.0482 221.022 89.7564C221.206 89.4646 221.457 89.2416 221.775 89.0875C222.093 88.9334 222.455 88.8564 222.862 88.8564C223.272 88.8564 223.635 88.9334 223.954 89.0875C224.272 89.2416 224.521 89.4646 224.701 89.7564C224.885 90.0482 224.976 90.4023 224.976 90.8187ZM224.067 90.8334C224.067 90.5941 224.016 90.3826 223.914 90.199C223.813 90.0154 223.672 89.8711 223.491 89.7662C223.311 89.658 223.101 89.6039 222.862 89.6039C222.622 89.6039 222.413 89.6547 222.232 89.7564C222.055 89.8547 221.916 89.9957 221.814 90.1793C221.716 90.3629 221.667 90.581 221.667 90.8334C221.667 91.0793 221.716 91.2941 221.814 91.4777C221.916 91.6613 222.057 91.8039 222.237 91.9056C222.417 92.0072 222.627 92.058 222.867 92.058C223.106 92.058 223.314 92.0072 223.491 91.9056C223.672 91.8039 223.813 91.6613 223.914 91.4777C224.016 91.2941 224.067 91.0793 224.067 90.8334ZM231.125 91.9646V93.0564C231.125 93.6433 231.073 94.1384 230.968 94.5417C230.863 94.945 230.712 95.2696 230.516 95.5155C230.319 95.7614 230.081 95.9401 229.802 96.0515C229.527 96.1597 229.216 96.2138 228.868 96.2138C228.593 96.2138 228.338 96.1794 228.106 96.1105C227.873 96.0417 227.663 95.9319 227.476 95.781C227.293 95.6269 227.135 95.4269 227.004 95.181C226.873 94.9351 226.773 94.6368 226.704 94.2859C226.635 93.9351 226.601 93.5253 226.601 93.0564V91.9646C226.601 91.3777 226.653 90.8859 226.758 90.4892C226.866 90.0924 227.019 89.7744 227.216 89.5351C227.412 89.2924 227.648 89.1187 227.924 89.0137C228.202 88.9088 228.514 88.8564 228.858 88.8564C229.137 88.8564 229.393 88.8908 229.625 88.9596C229.861 89.0252 230.071 89.1318 230.255 89.2793C230.439 89.4236 230.594 89.617 230.722 89.8596C230.853 90.099 230.953 90.3924 231.022 90.74C231.091 91.0875 231.125 91.4957 231.125 91.9646ZM230.211 93.204V91.8121C230.211 91.4908 230.191 91.2088 230.152 90.9662C230.116 90.7203 230.061 90.5105 229.989 90.3367C229.917 90.1629 229.825 90.0219 229.714 89.9137C229.606 89.8055 229.479 89.7269 229.335 89.6777C229.194 89.6252 229.035 89.599 228.858 89.599C228.642 89.599 228.45 89.64 228.283 89.7219C228.116 89.8006 227.975 89.9269 227.86 90.1006C227.748 90.2744 227.663 90.5023 227.604 90.7842C227.545 91.0662 227.516 91.4088 227.516 91.8121V93.204C227.516 93.5253 227.534 93.8089 227.57 94.0548C227.609 94.3007 227.666 94.5138 227.742 94.6941C227.817 94.8712 227.909 95.0171 228.017 95.1318C228.125 95.2466 228.25 95.3319 228.391 95.3876C228.535 95.44 228.694 95.4663 228.868 95.4663C229.091 95.4663 229.286 95.4237 229.453 95.3384C229.62 95.2532 229.76 95.1204 229.871 94.94C229.986 94.7564 230.071 94.522 230.127 94.2368C230.183 93.9482 230.211 93.604 230.211 93.204ZM232.553 90.7105V90.3318C232.553 90.0596 232.612 89.8121 232.73 89.5892C232.848 89.3662 233.017 89.1875 233.237 89.0531C233.456 88.9186 233.717 88.8514 234.019 88.8514C234.327 88.8514 234.589 88.9186 234.805 89.0531C235.025 89.1875 235.194 89.3662 235.312 89.5892C235.43 89.8121 235.489 90.0596 235.489 90.3318V90.7105C235.489 90.9761 235.43 91.2203 235.312 91.4433C235.197 91.6662 235.03 91.8449 234.81 91.9793C234.594 92.1138 234.333 92.181 234.028 92.181C233.723 92.181 233.46 92.1138 233.237 91.9793C233.017 91.8449 232.848 91.6662 232.73 91.4433C232.612 91.2203 232.553 90.9761 232.553 90.7105ZM233.237 90.3318V90.7105C233.237 90.8613 233.264 91.0039 233.32 91.1384C233.379 91.2728 233.468 91.3826 233.586 91.4679C233.704 91.5498 233.851 91.5908 234.028 91.5908C234.205 91.5908 234.351 91.5498 234.466 91.4679C234.581 91.3826 234.666 91.2728 234.722 91.1384C234.778 91.0039 234.805 90.8613 234.805 90.7105V90.3318C234.805 90.1777 234.776 90.0334 234.717 89.899C234.661 89.7613 234.574 89.6514 234.456 89.5695C234.342 89.4842 234.196 89.4416 234.019 89.4416C233.845 89.4416 233.699 89.4842 233.581 89.5695C233.466 89.6514 233.379 89.7613 233.32 89.899C233.264 90.0334 233.237 90.1777 233.237 90.3318ZM236.04 94.7433V94.3597C236.04 94.0909 236.099 93.8449 236.217 93.622C236.335 93.399 236.504 93.2203 236.724 93.0859C236.943 92.9515 237.204 92.8843 237.505 92.8843C237.814 92.8843 238.076 92.9515 238.292 93.0859C238.512 93.2203 238.681 93.399 238.799 93.622C238.917 93.8449 238.976 94.0909 238.976 94.3597V94.7433C238.976 95.0122 238.917 95.2581 238.799 95.481C238.684 95.704 238.517 95.8827 238.297 96.0171C238.081 96.1515 237.82 96.2187 237.515 96.2187C237.21 96.2187 236.948 96.1515 236.728 96.0171C236.509 95.8827 236.338 95.704 236.217 95.481C236.099 95.2581 236.04 95.0122 236.04 94.7433ZM236.724 94.3597V94.7433C236.724 94.8941 236.751 95.0384 236.807 95.1761C236.866 95.3105 236.955 95.4204 237.073 95.5056C237.191 95.5876 237.338 95.6286 237.515 95.6286C237.692 95.6286 237.838 95.5876 237.953 95.5056C238.071 95.4204 238.158 95.3105 238.214 95.1761C238.269 95.0417 238.297 94.8974 238.297 94.7433V94.3597C238.297 94.2056 238.268 94.0613 238.209 93.9269C238.153 93.7925 238.066 93.6843 237.948 93.6023C237.833 93.5171 237.686 93.4744 237.505 93.4744C237.332 93.4744 237.186 93.5171 237.068 93.6023C236.953 93.6843 236.866 93.7925 236.807 93.9269C236.751 94.0613 236.724 94.2056 236.724 94.3597ZM237.732 89.9728L234.235 95.5696L233.723 95.245L237.22 89.6482L237.732 89.9728Z" fill="black" fill-opacity="0.54"/>
<path d="M224.121 130.249H224.199V131.021H224.121C223.639 131.021 223.235 131.1 222.911 131.257C222.586 131.411 222.329 131.619 222.139 131.882C221.949 132.141 221.811 132.432 221.726 132.757C221.644 133.082 221.603 133.411 221.603 133.745V134.798C221.603 135.116 221.64 135.398 221.716 135.644C221.791 135.886 221.894 136.091 222.026 136.259C222.157 136.426 222.304 136.552 222.468 136.637C222.635 136.723 222.809 136.765 222.99 136.765C223.199 136.765 223.386 136.726 223.55 136.647C223.714 136.565 223.852 136.452 223.963 136.308C224.078 136.16 224.165 135.986 224.224 135.786C224.283 135.586 224.313 135.367 224.313 135.127C224.313 134.914 224.286 134.709 224.234 134.513C224.181 134.313 224.101 134.136 223.993 133.982C223.885 133.824 223.749 133.701 223.585 133.613C223.424 133.521 223.232 133.475 223.009 133.475C222.757 133.475 222.521 133.537 222.301 133.662C222.085 133.783 221.906 133.944 221.765 134.144C221.627 134.341 221.549 134.555 221.529 134.788L221.047 134.783C221.093 134.416 221.178 134.103 221.303 133.844C221.431 133.582 221.588 133.368 221.775 133.204C221.965 133.037 222.176 132.916 222.409 132.841C222.645 132.762 222.894 132.723 223.157 132.723C223.514 132.723 223.822 132.79 224.081 132.924C224.34 133.059 224.554 133.239 224.721 133.465C224.888 133.688 225.011 133.941 225.09 134.223C225.172 134.501 225.213 134.788 225.213 135.083C225.213 135.421 225.165 135.737 225.07 136.032C224.975 136.327 224.832 136.586 224.642 136.809C224.455 137.032 224.224 137.206 223.949 137.331C223.673 137.455 223.354 137.518 222.99 137.518C222.603 137.518 222.265 137.439 221.976 137.282C221.688 137.121 221.449 136.908 221.258 136.642C221.068 136.377 220.926 136.082 220.831 135.757C220.735 135.432 220.688 135.103 220.688 134.768V134.341C220.688 133.836 220.739 133.341 220.84 132.855C220.942 132.37 221.117 131.931 221.367 131.537C221.619 131.144 221.968 130.831 222.414 130.598C222.86 130.365 223.429 130.249 224.121 130.249ZM231.125 133.268V134.36C231.125 134.947 231.073 135.442 230.968 135.846C230.863 136.249 230.712 136.573 230.516 136.819C230.319 137.065 230.081 137.244 229.802 137.355C229.527 137.464 229.216 137.518 228.868 137.518C228.593 137.518 228.338 137.483 228.106 137.414C227.873 137.346 227.663 137.236 227.476 137.085C227.293 136.931 227.135 136.731 227.004 136.485C226.873 136.239 226.773 135.941 226.704 135.59C226.635 135.239 226.601 134.829 226.601 134.36V133.268C226.601 132.682 226.653 132.19 226.758 131.793C226.866 131.396 227.019 131.078 227.216 130.839C227.412 130.596 227.648 130.422 227.924 130.318C228.202 130.213 228.514 130.16 228.858 130.16C229.137 130.16 229.393 130.195 229.625 130.263C229.861 130.329 230.071 130.436 230.255 130.583C230.439 130.727 230.594 130.921 230.722 131.163C230.853 131.403 230.953 131.696 231.022 132.044C231.091 132.391 231.125 132.8 231.125 133.268ZM230.211 134.508V133.116C230.211 132.795 230.191 132.513 230.152 132.27C230.116 132.024 230.061 131.814 229.989 131.641C229.917 131.467 229.825 131.326 229.714 131.218C229.606 131.109 229.479 131.031 229.335 130.982C229.194 130.929 229.035 130.903 228.858 130.903C228.642 130.903 228.45 130.944 228.283 131.026C228.116 131.104 227.975 131.231 227.86 131.404C227.748 131.578 227.663 131.806 227.604 132.088C227.545 132.37 227.516 132.713 227.516 133.116V134.508C227.516 134.829 227.534 135.113 227.57 135.359C227.609 135.605 227.666 135.818 227.742 135.998C227.817 136.175 227.909 136.321 228.017 136.436C228.125 136.55 228.25 136.636 228.391 136.691C228.535 136.744 228.694 136.77 228.868 136.77C229.091 136.77 229.286 136.727 229.453 136.642C229.62 136.557 229.76 136.424 229.871 136.244C229.986 136.06 230.071 135.826 230.127 135.541C230.183 135.252 230.211 134.908 230.211 134.508ZM232.553 132.014V131.636C232.553 131.363 232.612 131.116 232.73 130.893C232.848 130.67 233.017 130.491 233.237 130.357C233.456 130.222 233.717 130.155 234.019 130.155C234.327 130.155 234.589 130.222 234.805 130.357C235.025 130.491 235.194 130.67 235.312 130.893C235.43 131.116 235.489 131.363 235.489 131.636V132.014C235.489 132.28 235.43 132.524 235.312 132.747C235.197 132.97 235.03 133.149 234.81 133.283C234.594 133.418 234.333 133.485 234.028 133.485C233.723 133.485 233.46 133.418 233.237 133.283C233.017 133.149 232.848 132.97 232.73 132.747C232.612 132.524 232.553 132.28 232.553 132.014ZM233.237 131.636V132.014C233.237 132.165 233.264 132.308 233.32 132.442C233.379 132.577 233.468 132.686 233.586 132.772C233.704 132.854 233.851 132.895 234.028 132.895C234.205 132.895 234.351 132.854 234.466 132.772C234.581 132.686 234.666 132.577 234.722 132.442C234.778 132.308 234.805 132.165 234.805 132.014V131.636C234.805 131.482 234.776 131.337 234.717 131.203C234.661 131.065 234.574 130.955 234.456 130.873C234.342 130.788 234.196 130.745 234.019 130.745C233.845 130.745 233.699 130.788 233.581 130.873C233.466 130.955 233.379 131.065 233.32 131.203C233.264 131.337 233.237 131.482 233.237 131.636ZM236.04 136.047V135.664C236.04 135.395 236.099 135.149 236.217 134.926C236.335 134.703 236.504 134.524 236.724 134.39C236.943 134.255 237.204 134.188 237.505 134.188C237.814 134.188 238.076 134.255 238.292 134.39C238.512 134.524 238.681 134.703 238.799 134.926C238.917 135.149 238.976 135.395 238.976 135.664V136.047C238.976 136.316 238.917 136.562 238.799 136.785C238.684 137.008 238.517 137.187 238.297 137.321C238.081 137.455 237.82 137.523 237.515 137.523C237.21 137.523 236.948 137.455 236.728 137.321C236.509 137.187 236.338 137.008 236.217 136.785C236.099 136.562 236.04 136.316 236.04 136.047ZM236.724 135.664V136.047C236.724 136.198 236.751 136.342 236.807 136.48C236.866 136.614 236.955 136.724 237.073 136.809C237.191 136.891 237.338 136.932 237.515 136.932C237.692 136.932 237.838 136.891 237.953 136.809C238.071 136.724 238.158 136.614 238.214 136.48C238.269 136.346 238.297 136.201 238.297 136.047V135.664C238.297 135.509 238.268 135.365 238.209 135.231C238.153 135.096 238.066 134.988 237.948 134.906C237.833 134.821 237.686 134.778 237.505 134.778C237.332 134.778 237.186 134.821 237.068 134.906C236.953 134.988 236.866 135.096 236.807 135.231C236.751 135.365 236.724 135.509 236.724 135.664ZM237.732 131.277L234.235 136.873L233.723 136.549L237.22 130.952L237.732 131.277Z" fill="black" fill-opacity="0.54"/>
<path d="M225.468 176.314V177.062H220.294V176.526L223.501 171.563H224.244L223.447 172.999L221.327 176.314H225.468ZM224.47 171.563V178.724H223.56V171.563H224.47ZM231.125 174.573V175.665C231.125 176.252 231.073 176.747 230.968 177.15C230.863 177.554 230.712 177.878 230.516 178.124C230.319 178.37 230.081 178.549 229.802 178.66C229.527 178.768 229.216 178.822 228.868 178.822C228.593 178.822 228.338 178.788 228.106 178.719C227.873 178.65 227.663 178.54 227.476 178.39C227.293 178.236 227.135 178.036 227.004 177.79C226.873 177.544 226.773 177.245 226.704 176.895C226.635 176.544 226.601 176.134 226.601 175.665V174.573C226.601 173.986 226.653 173.495 226.758 173.098C226.866 172.701 227.019 172.383 227.216 172.144C227.412 171.901 227.648 171.727 227.924 171.622C228.202 171.517 228.514 171.465 228.858 171.465C229.137 171.465 229.393 171.499 229.625 171.568C229.861 171.634 230.071 171.74 230.255 171.888C230.439 172.032 230.594 172.226 230.722 172.468C230.853 172.708 230.953 173.001 231.022 173.349C231.091 173.696 231.125 174.104 231.125 174.573ZM230.211 175.813V174.421C230.211 174.099 230.191 173.817 230.152 173.575C230.116 173.329 230.061 173.119 229.989 172.945C229.917 172.772 229.825 172.631 229.714 172.522C229.606 172.414 229.479 172.335 229.335 172.286C229.194 172.234 229.035 172.208 228.858 172.208C228.642 172.208 228.45 172.249 228.283 172.331C228.116 172.409 227.975 172.535 227.86 172.709C227.748 172.883 227.663 173.111 227.604 173.393C227.545 173.675 227.516 174.017 227.516 174.421V175.813C227.516 176.134 227.534 176.418 227.57 176.663C227.609 176.909 227.666 177.122 227.742 177.303C227.817 177.48 227.909 177.626 228.017 177.74C228.125 177.855 228.25 177.94 228.391 177.996C228.535 178.049 228.694 178.075 228.868 178.075C229.091 178.075 229.286 178.032 229.453 177.947C229.62 177.862 229.76 177.729 229.871 177.549C229.986 177.365 230.071 177.131 230.127 176.845C230.183 176.557 230.211 176.213 230.211 175.813ZM232.553 173.319V172.94C232.553 172.668 232.612 172.421 232.73 172.198C232.848 171.975 233.017 171.796 233.237 171.662C233.456 171.527 233.717 171.46 234.019 171.46C234.327 171.46 234.589 171.527 234.805 171.662C235.025 171.796 235.194 171.975 235.312 172.198C235.43 172.421 235.489 172.668 235.489 172.94V173.319C235.489 173.585 235.43 173.829 235.312 174.052C235.197 174.275 235.03 174.454 234.81 174.588C234.594 174.722 234.333 174.79 234.028 174.79C233.723 174.79 233.46 174.722 233.237 174.588C233.017 174.454 232.848 174.275 232.73 174.052C232.612 173.829 232.553 173.585 232.553 173.319ZM233.237 172.94V173.319C233.237 173.47 233.264 173.613 233.32 173.747C233.379 173.881 233.468 173.991 233.586 174.076C233.704 174.158 233.851 174.199 234.028 174.199C234.205 174.199 234.351 174.158 234.466 174.076C234.581 173.991 234.666 173.881 234.722 173.747C234.778 173.613 234.805 173.47 234.805 173.319V172.94C234.805 172.786 234.776 172.642 234.717 172.508C234.661 172.37 234.574 172.26 234.456 172.178C234.342 172.093 234.196 172.05 234.019 172.05C233.845 172.05 233.699 172.093 233.581 172.178C233.466 172.26 233.379 172.37 233.32 172.508C233.264 172.642 233.237 172.786 233.237 172.94ZM236.04 177.352V176.968C236.04 176.699 236.099 176.454 236.217 176.231C236.335 176.008 236.504 175.829 236.724 175.695C236.943 175.56 237.204 175.493 237.505 175.493C237.814 175.493 238.076 175.56 238.292 175.695C238.512 175.829 238.681 176.008 238.799 176.231C238.917 176.454 238.976 176.699 238.976 176.968V177.352C238.976 177.621 238.917 177.867 238.799 178.09C238.684 178.313 238.517 178.491 238.297 178.626C238.081 178.76 237.82 178.827 237.515 178.827C237.21 178.827 236.948 178.76 236.728 178.626C236.509 178.491 236.338 178.313 236.217 178.09C236.099 177.867 236.04 177.621 236.04 177.352ZM236.724 176.968V177.352C236.724 177.503 236.751 177.647 236.807 177.785C236.866 177.919 236.955 178.029 237.073 178.114C237.191 178.196 237.338 178.237 237.515 178.237C237.692 178.237 237.838 178.196 237.953 178.114C238.071 178.029 238.158 177.919 238.214 177.785C238.269 177.65 238.297 177.506 238.297 177.352V176.968C238.297 176.814 238.268 176.67 238.209 176.536C238.153 176.401 238.066 176.293 237.948 176.211C237.833 176.126 237.686 176.083 237.505 176.083C237.332 176.083 237.186 176.126 237.068 176.211C236.953 176.293 236.866 176.401 236.807 176.536C236.751 176.67 236.724 176.814 236.724 176.968ZM237.732 172.581L234.235 178.178L233.723 177.854L237.22 172.257L237.732 172.581Z" fill="black" fill-opacity="0.54"/>
<path d="M225.321 220.963V221.711H220.634V221.057L222.98 218.445C223.268 218.124 223.491 217.852 223.649 217.629C223.809 217.403 223.921 217.201 223.983 217.024C224.049 216.844 224.081 216.66 224.081 216.473C224.081 216.237 224.032 216.024 223.934 215.834C223.839 215.64 223.698 215.486 223.511 215.371C223.324 215.257 223.098 215.199 222.832 215.199C222.514 215.199 222.249 215.262 222.035 215.386C221.826 215.507 221.668 215.678 221.563 215.898C221.458 216.117 221.406 216.37 221.406 216.655H220.496C220.496 216.252 220.585 215.883 220.762 215.548C220.939 215.214 221.201 214.948 221.549 214.752C221.896 214.552 222.324 214.452 222.832 214.452C223.285 214.452 223.672 214.532 223.993 214.693C224.314 214.85 224.56 215.073 224.731 215.362C224.904 215.647 224.991 215.981 224.991 216.365C224.991 216.575 224.955 216.788 224.883 217.004C224.814 217.217 224.717 217.43 224.593 217.644C224.472 217.857 224.329 218.066 224.165 218.273C224.004 218.48 223.832 218.683 223.649 218.883L221.731 220.963H225.321ZM231.125 217.56V218.652C231.125 219.239 231.073 219.734 230.968 220.137C230.863 220.54 230.712 220.865 230.516 221.111C230.319 221.357 230.081 221.535 229.802 221.647C229.527 221.755 229.216 221.809 228.868 221.809C228.593 221.809 228.338 221.775 228.106 221.706C227.873 221.637 227.663 221.527 227.476 221.376C227.293 221.222 227.135 221.022 227.004 220.776C226.873 220.53 226.773 220.232 226.704 219.881C226.635 219.53 226.601 219.121 226.601 218.652V217.56C226.601 216.973 226.653 216.481 226.758 216.084C226.866 215.688 227.019 215.37 227.216 215.13C227.412 214.888 227.648 214.714 227.924 214.609C228.202 214.504 228.514 214.452 228.858 214.452C229.137 214.452 229.393 214.486 229.625 214.555C229.861 214.621 230.071 214.727 230.255 214.875C230.439 215.019 230.594 215.212 230.722 215.455C230.853 215.694 230.953 215.988 231.022 216.335C231.091 216.683 231.125 217.091 231.125 217.56ZM230.211 218.799V217.407C230.211 217.086 230.191 216.804 230.152 216.562C230.116 216.316 230.061 216.106 229.989 215.932C229.917 215.758 229.825 215.617 229.714 215.509C229.606 215.401 229.479 215.322 229.335 215.273C229.194 215.221 229.035 215.194 228.858 215.194C228.642 215.194 228.45 215.235 228.283 215.317C228.116 215.396 227.975 215.522 227.86 215.696C227.748 215.87 227.663 216.098 227.604 216.38C227.545 216.662 227.516 217.004 227.516 217.407V218.799C227.516 219.121 227.534 219.404 227.57 219.65C227.609 219.896 227.666 220.109 227.742 220.289C227.817 220.467 227.909 220.612 228.017 220.727C228.125 220.842 228.25 220.927 228.391 220.983C228.535 221.035 228.694 221.062 228.868 221.062C229.091 221.062 229.286 221.019 229.453 220.934C229.62 220.848 229.76 220.716 229.871 220.535C229.986 220.352 230.071 220.117 230.127 219.832C230.183 219.544 230.211 219.199 230.211 218.799ZM232.553 216.306V215.927C232.553 215.655 232.612 215.407 232.73 215.184C232.848 214.962 233.017 214.783 233.237 214.648C233.456 214.514 233.717 214.447 234.019 214.447C234.327 214.447 234.589 214.514 234.805 214.648C235.025 214.783 235.194 214.962 235.312 215.184C235.43 215.407 235.489 215.655 235.489 215.927V216.306C235.489 216.571 235.43 216.816 235.312 217.039C235.197 217.262 235.03 217.44 234.81 217.575C234.594 217.709 234.333 217.776 234.028 217.776C233.723 217.776 233.46 217.709 233.237 217.575C233.017 217.44 232.848 217.262 232.73 217.039C232.612 216.816 232.553 216.571 232.553 216.306ZM233.237 215.927V216.306C233.237 216.457 233.264 216.599 233.32 216.734C233.379 216.868 233.468 216.978 233.586 217.063C233.704 217.145 233.851 217.186 234.028 217.186C234.205 217.186 234.351 217.145 234.466 217.063C234.581 216.978 234.666 216.868 234.722 216.734C234.778 216.599 234.805 216.457 234.805 216.306V215.927C234.805 215.773 234.776 215.629 234.717 215.494C234.661 215.357 234.574 215.247 234.456 215.165C234.342 215.08 234.196 215.037 234.019 215.037C233.845 215.037 233.699 215.08 233.581 215.165C233.466 215.247 233.379 215.357 233.32 215.494C233.264 215.629 233.237 215.773 233.237 215.927ZM236.04 220.339V219.955C236.04 219.686 236.099 219.44 236.217 219.217C236.335 218.994 236.504 218.816 236.724 218.681C236.943 218.547 237.204 218.48 237.505 218.48C237.814 218.48 238.076 218.547 238.292 218.681C238.512 218.816 238.681 218.994 238.799 219.217C238.917 219.44 238.976 219.686 238.976 219.955V220.339C238.976 220.607 238.917 220.853 238.799 221.076C238.684 221.299 238.517 221.478 238.297 221.612C238.081 221.747 237.82 221.814 237.515 221.814C237.21 221.814 236.948 221.747 236.728 221.612C236.509 221.478 236.338 221.299 236.217 221.076C236.099 220.853 236.04 220.607 236.04 220.339ZM236.724 219.955V220.339C236.724 220.489 236.751 220.634 236.807 220.771C236.866 220.906 236.955 221.016 237.073 221.101C237.191 221.183 237.338 221.224 237.515 221.224C237.692 221.224 237.838 221.183 237.953 221.101C238.071 221.016 238.158 220.906 238.214 220.771C238.269 220.637 238.297 220.493 238.297 220.339V219.955C238.297 219.801 238.268 219.657 238.209 219.522C238.153 219.388 238.066 219.28 237.948 219.198C237.833 219.112 237.686 219.07 237.505 219.07C237.332 219.07 237.186 219.112 237.068 219.198C236.953 219.28 236.866 219.388 236.807 219.522C236.751 219.657 236.724 219.801 236.724 219.955ZM237.732 215.568L234.235 221.165L233.723 220.84L237.22 215.243L237.732 215.568Z" fill="black" fill-opacity="0.54"/>
<path d="M231.166 252.972V254.064C231.166 254.651 231.113 255.146 231.009 255.549C230.904 255.953 230.753 256.277 230.556 256.523C230.359 256.769 230.122 256.948 229.843 257.059C229.568 257.167 229.256 257.221 228.909 257.221C228.633 257.221 228.379 257.187 228.146 257.118C227.913 257.049 227.704 256.94 227.517 256.789C227.333 256.635 227.176 256.435 227.045 256.189C226.913 255.943 226.813 255.644 226.745 255.294C226.676 254.943 226.641 254.533 226.641 254.064V252.972C226.641 252.385 226.694 251.894 226.799 251.497C226.907 251.1 227.059 250.782 227.256 250.543C227.453 250.3 227.689 250.126 227.964 250.021C228.243 249.916 228.554 249.864 228.899 249.864C229.177 249.864 229.433 249.898 229.666 249.967C229.902 250.033 230.112 250.139 230.295 250.287C230.479 250.431 230.635 250.625 230.763 250.867C230.894 251.107 230.994 251.4 231.063 251.748C231.131 252.095 231.166 252.503 231.166 252.972ZM230.251 254.212V252.82C230.251 252.498 230.231 252.217 230.192 251.974C230.156 251.728 230.102 251.518 230.03 251.344C229.958 251.171 229.866 251.03 229.754 250.921C229.646 250.813 229.52 250.735 229.376 250.685C229.235 250.633 229.076 250.607 228.899 250.607C228.682 250.607 228.49 250.648 228.323 250.73C228.156 250.808 228.015 250.935 227.9 251.108C227.789 251.282 227.704 251.51 227.645 251.792C227.586 252.074 227.556 252.417 227.556 252.82V254.212C227.556 254.533 227.574 254.817 227.61 255.062C227.649 255.308 227.707 255.521 227.782 255.702C227.858 255.879 227.949 256.025 228.058 256.14C228.166 256.254 228.29 256.34 228.431 256.395C228.576 256.448 228.735 256.474 228.909 256.474C229.131 256.474 229.327 256.431 229.494 256.346C229.661 256.261 229.8 256.128 229.912 255.948C230.027 255.764 230.112 255.53 230.168 255.244C230.223 254.956 230.251 254.612 230.251 254.212ZM232.593 251.718V251.339C232.593 251.067 232.652 250.82 232.771 250.597C232.889 250.374 233.057 250.195 233.277 250.061C233.497 249.926 233.757 249.859 234.059 249.859C234.367 249.859 234.63 249.926 234.846 250.061C235.066 250.195 235.234 250.374 235.353 250.597C235.471 250.82 235.53 251.067 235.53 251.339V251.718C235.53 251.984 235.471 252.228 235.353 252.451C235.238 252.674 235.071 252.853 234.851 252.987C234.634 253.121 234.374 253.189 234.069 253.189C233.764 253.189 233.5 253.121 233.277 252.987C233.057 252.853 232.889 252.674 232.771 252.451C232.652 252.228 232.593 251.984 232.593 251.718ZM233.277 251.339V251.718C233.277 251.869 233.305 252.012 233.361 252.146C233.42 252.28 233.508 252.39 233.626 252.476C233.744 252.558 233.892 252.598 234.069 252.598C234.246 252.598 234.392 252.558 234.507 252.476C234.621 252.39 234.707 252.28 234.762 252.146C234.818 252.012 234.846 251.869 234.846 251.718V251.339C234.846 251.185 234.816 251.041 234.757 250.907C234.702 250.769 234.615 250.659 234.497 250.577C234.382 250.492 234.236 250.449 234.059 250.449C233.885 250.449 233.739 250.492 233.621 250.577C233.507 250.659 233.42 250.769 233.361 250.907C233.305 251.041 233.277 251.185 233.277 251.339ZM236.08 255.751V255.367C236.08 255.099 236.139 254.853 236.257 254.63C236.375 254.407 236.544 254.228 236.764 254.094C236.984 253.959 237.244 253.892 237.546 253.892C237.854 253.892 238.116 253.959 238.333 254.094C238.553 254.228 238.721 254.407 238.839 254.63C238.957 254.853 239.017 255.099 239.017 255.367V255.751C239.017 256.02 238.957 256.266 238.839 256.489C238.725 256.712 238.557 256.89 238.338 257.025C238.121 257.159 237.861 257.226 237.556 257.226C237.251 257.226 236.989 257.159 236.769 257.025C236.549 256.89 236.379 256.712 236.257 256.489C236.139 256.266 236.08 256.02 236.08 255.751ZM236.764 255.367V255.751C236.764 255.902 236.792 256.046 236.848 256.184C236.907 256.318 236.995 256.428 237.113 256.513C237.231 256.595 237.379 256.636 237.556 256.636C237.733 256.636 237.879 256.595 237.994 256.513C238.112 256.428 238.198 256.318 238.254 256.184C238.31 256.049 238.338 255.905 238.338 255.751V255.367C238.338 255.213 238.308 255.069 238.249 254.935C238.194 254.8 238.107 254.692 237.989 254.61C237.874 254.525 237.726 254.482 237.546 254.482C237.372 254.482 237.226 254.525 237.108 254.61C236.994 254.692 236.907 254.8 236.848 254.935C236.792 255.069 236.764 255.213 236.764 255.367ZM237.772 250.98L234.275 256.577L233.764 256.253L237.261 250.656L237.772 250.98Z" fill="black" fill-opacity="0.54"/>
<line x1="248.247" y1="55.3569" x2="540.279" y2="55.3569" stroke="black" stroke-opacity="0.05" stroke-width="0.839234" stroke-linecap="square"/>
<line x1="248.247" y1="92.3867" x2="540.279" y2="92.3867" stroke="black" stroke-opacity="0.05" stroke-width="0.839234" stroke-linecap="square"/>
<line x1="248.247" y1="132.782" x2="540.279" y2="132.782" stroke="black" stroke-opacity="0.05" stroke-width="0.839234" stroke-linecap="square"/>
<line x1="248.247" y1="176.545" x2="540.279" y2="176.545" stroke="black" stroke-opacity="0.05" stroke-width="0.839234" stroke-linecap="square"/>
<line x1="248.247" y1="218.624" x2="540.279" y2="218.624" stroke="black" stroke-opacity="0.05" stroke-width="0.839234" stroke-linecap="square"/>
<line x1="248.247" y1="253.971" x2="540.279" y2="253.971" stroke="black" stroke-opacity="0.38" stroke-width="0.839234" stroke-linecap="square"/>
<g clip-path="url(#clip0_17135_46044)">
<path d="M264.749 129.596H281.668V253.712H264.749V129.596Z" fill="#44C66B"/>
</g>
<g clip-path="url(#clip1_17135_46044)">
<path d="M358.407 64.9508H375.326V253.711H358.407V64.9508Z" fill="#44C66B"/>
</g>
<g clip-path="url(#clip2_17135_46044)">
<path d="M451.462 88.2247H468.381V253.713H451.462V88.2247Z" fill="#44C66B"/>
</g>
<g clip-path="url(#clip3_17135_46044)">
<path d="M281.06 75.4367H297.979V253.854H281.06V75.4367Z" fill="#217039"/>
</g>
<g clip-path="url(#clip4_17135_46044)">
<path d="M375.324 115.517H391.034V253.854H375.324V115.517Z" fill="#217039"/>
</g>
<g clip-path="url(#clip5_17135_46044)">
<path d="M468.376 75.2951H485.295V253.712H468.376V75.2951Z" fill="#217039"/>
</g>
<g clip-path="url(#clip6_17135_46044)">
<path d="M298.268 100.706H315.099V253.874H298.268V100.706Z" fill="#B6F1C8"/>
</g>
<g clip-path="url(#clip7_17135_46044)">
<path d="M390.846 134.369H407.677V253.874H390.846V134.369Z" fill="#B6F1C8"/>
</g>
<g clip-path="url(#clip8_17135_46044)">
<path d="M485.101 105.755H501.933V253.874H485.101V105.755Z" fill="#B6F1C8"/>
</g>
<g clip-path="url(#clip9_17135_46044)">
<path d="M314.897 102.587H330.607V253.854H314.897V102.587Z" fill="#008B29"/>
</g>
<g clip-path="url(#clip10_17135_46044)">
<path d="M407.952 150.282H424.87V253.712H407.952V150.282Z" fill="#008B29"/>
</g>
<g clip-path="url(#clip11_17135_46044)">
<path d="M502.213 124.423H519.132V253.711H502.213V124.423Z" fill="#008B29"/>
</g>
<path d="M209.557 23.2026H207.118L207.105 21.9994H209.235C209.595 21.9994 209.899 21.9468 210.149 21.8416C210.403 21.732 210.596 21.5764 210.728 21.3748C210.859 21.1688 210.925 20.9211 210.925 20.6318C210.925 20.3119 210.864 20.0511 210.741 19.8494C210.618 19.6478 210.43 19.501 210.176 19.4089C209.926 19.3169 209.606 19.2708 209.216 19.2708H207.618V27.5289H205.968V17.9559H209.216C209.742 17.9559 210.211 18.0063 210.623 18.1071C211.039 18.2079 211.392 18.3657 211.681 18.5805C211.975 18.7909 212.196 19.0582 212.345 19.3826C212.499 19.707 212.575 20.0927 212.575 20.5398C212.575 20.9343 212.481 21.2959 212.293 21.6246C212.104 21.949 211.826 22.2142 211.458 22.4202C211.089 22.6262 210.631 22.7489 210.083 22.7884L209.557 23.2026ZM209.485 27.5289H206.599L207.342 26.2205H209.485C209.858 26.2205 210.169 26.1591 210.419 26.0364C210.669 25.9093 210.855 25.7361 210.978 25.517C211.105 25.2934 211.168 25.0326 211.168 24.7346C211.168 24.4233 211.114 24.1538 211.004 23.9258C210.894 23.6935 210.721 23.516 210.485 23.3933C210.248 23.2662 209.939 23.2026 209.557 23.2026H207.703L207.717 21.9994H210.129L210.504 22.4531C211.03 22.4706 211.462 22.5868 211.8 22.8015C212.141 23.0163 212.396 23.2947 212.562 23.6366C212.729 23.9784 212.812 24.3466 212.812 24.7411C212.812 25.3504 212.678 25.8611 212.411 26.2731C212.148 26.6851 211.769 26.9985 211.274 27.2133C210.778 27.4237 210.182 27.5289 209.485 27.5289ZM218.328 26.1021V22.7095C218.328 22.4553 218.282 22.2361 218.19 22.052C218.098 21.8679 217.958 21.7255 217.77 21.6246C217.585 21.5238 217.353 21.4734 217.073 21.4734C216.814 21.4734 216.59 21.5172 216.402 21.6049C216.213 21.6926 216.067 21.8109 215.961 21.96C215.856 22.109 215.804 22.2777 215.804 22.4662H214.226C214.226 22.1857 214.294 21.9139 214.429 21.6509C214.565 21.3879 214.763 21.1534 215.021 20.9474C215.28 20.7414 215.589 20.5792 215.948 20.4609C216.308 20.3425 216.711 20.2834 217.158 20.2834C217.693 20.2834 218.166 20.3732 218.578 20.5529C218.995 20.7326 219.321 21.0044 219.558 21.3682C219.799 21.7276 219.919 22.1791 219.919 22.7226V25.8852C219.919 26.2095 219.941 26.501 219.985 26.7596C220.033 27.0139 220.101 27.2352 220.189 27.4237V27.5289H218.565C218.491 27.3579 218.431 27.141 218.388 26.878C218.348 26.6106 218.328 26.352 218.328 26.1021ZM218.558 23.2026L218.572 24.1823H217.434C217.141 24.1823 216.882 24.2108 216.658 24.2677C216.435 24.3203 216.249 24.3992 216.099 24.5044C215.95 24.6096 215.839 24.7368 215.764 24.8858C215.69 25.0348 215.652 25.2036 215.652 25.392C215.652 25.5805 215.696 25.7537 215.784 25.9115C215.872 26.0649 215.999 26.1854 216.165 26.2731C216.336 26.3607 216.542 26.4046 216.783 26.4046C217.108 26.4046 217.39 26.3388 217.631 26.2073C217.877 26.0715 218.07 25.9071 218.21 25.7142C218.35 25.517 218.425 25.3307 218.434 25.1554L218.946 25.8589C218.894 26.0386 218.804 26.2314 218.677 26.4375C218.55 26.6435 218.383 26.8407 218.177 27.0292C217.976 27.2133 217.732 27.3645 217.447 27.4829C217.167 27.6012 216.842 27.6604 216.474 27.6604C216.01 27.6604 215.595 27.5683 215.232 27.3842C214.868 27.1958 214.583 26.9437 214.377 26.6281C214.171 26.3081 214.068 25.9465 214.068 25.5433C214.068 25.1663 214.138 24.8332 214.278 24.5439C214.423 24.2502 214.633 24.0047 214.909 23.8075C215.19 23.6103 215.532 23.4612 215.935 23.3604C216.338 23.2552 216.799 23.2026 217.316 23.2026H218.558ZM223.167 21.7693V27.5289H221.583V20.4149H223.095L223.167 21.7693ZM225.344 20.3688L225.331 21.8416C225.234 21.8241 225.129 21.8109 225.015 21.8022C224.905 21.7934 224.796 21.789 224.686 21.789C224.415 21.789 224.176 21.8285 223.97 21.9074C223.764 21.9819 223.59 22.0915 223.45 22.2361C223.314 22.3764 223.209 22.5473 223.135 22.7489C223.06 22.9506 223.016 23.1763 223.003 23.4262L222.641 23.4525C222.641 23.0054 222.685 22.5911 222.773 22.2098C222.861 21.8285 222.992 21.4931 223.167 21.2038C223.347 20.9146 223.571 20.6888 223.838 20.5266C224.11 20.3645 224.423 20.2834 224.778 20.2834C224.875 20.2834 224.978 20.2921 225.087 20.3097C225.201 20.3272 225.287 20.3469 225.344 20.3688ZM235.502 24.4124H237.146C237.093 25.0392 236.918 25.5981 236.62 26.089C236.322 26.5755 235.903 26.9591 235.364 27.2396C234.825 27.5201 234.169 27.6604 233.398 27.6604C232.806 27.6604 232.274 27.5552 231.8 27.3448C231.327 27.13 230.921 26.8276 230.584 26.4375C230.246 26.043 229.988 25.5674 229.808 25.0107C229.633 24.454 229.545 23.8316 229.545 23.1434V22.3479C229.545 21.6597 229.635 21.0373 229.815 20.4806C229.999 19.9239 230.262 19.4484 230.604 19.0539C230.946 18.655 231.355 18.3503 231.833 18.14C232.315 17.9296 232.857 17.8244 233.457 17.8244C234.22 17.8244 234.864 17.9646 235.39 18.2451C235.916 18.5257 236.324 18.9136 236.613 19.4089C236.907 19.9042 237.087 20.4718 237.152 21.1118H235.509C235.465 20.6998 235.368 20.3469 235.219 20.0532C235.075 19.7596 234.86 19.536 234.575 19.3826C234.29 19.2248 233.917 19.1459 233.457 19.1459C233.08 19.1459 232.751 19.216 232.471 19.3563C232.19 19.4966 231.956 19.7026 231.767 19.9743C231.579 20.2461 231.436 20.5814 231.34 20.9803C231.248 21.3748 231.202 21.8263 231.202 22.3347V23.1434C231.202 23.6256 231.244 24.0639 231.327 24.4584C231.415 24.8485 231.546 25.1838 231.721 25.4644C231.901 25.7449 232.129 25.9619 232.405 26.1153C232.681 26.2687 233.012 26.3454 233.398 26.3454C233.867 26.3454 234.246 26.2709 234.535 26.1219C234.829 25.9728 235.05 25.7559 235.2 25.4709C235.353 25.1817 235.454 24.8288 235.502 24.4124ZM240.052 17.4299V27.5289H238.474V17.4299H240.052ZM239.776 23.7089L239.263 23.7023C239.267 23.2114 239.335 22.7577 239.467 22.3413C239.603 21.9249 239.791 21.5633 240.032 21.2564C240.278 20.9452 240.571 20.7063 240.913 20.5398C241.255 20.3688 241.634 20.2834 242.051 20.2834C242.401 20.2834 242.717 20.3316 242.997 20.428C243.282 20.5244 243.528 20.68 243.734 20.8948C243.94 21.1052 244.095 21.3814 244.201 21.7233C244.31 22.0608 244.365 22.4728 244.365 22.9593V27.5289H242.774V22.9462C242.774 22.6043 242.723 22.3325 242.623 22.1309C242.526 21.9293 242.384 21.7846 242.195 21.697C242.007 21.6049 241.777 21.5589 241.505 21.5589C241.22 21.5589 240.968 21.6159 240.749 21.7298C240.534 21.8438 240.354 21.9994 240.21 22.1967C240.065 22.3939 239.955 22.6218 239.881 22.8804C239.811 23.1391 239.776 23.4152 239.776 23.7089ZM249.98 26.1021V22.7095C249.98 22.4553 249.934 22.2361 249.842 22.052C249.75 21.8679 249.609 21.7255 249.421 21.6246C249.237 21.5238 249.005 21.4734 248.724 21.4734C248.465 21.4734 248.242 21.5172 248.053 21.6049C247.865 21.6926 247.718 21.8109 247.613 21.96C247.508 22.109 247.455 22.2777 247.455 22.4662H245.877C245.877 22.1857 245.945 21.9139 246.081 21.6509C246.217 21.3879 246.414 21.1534 246.673 20.9474C246.931 20.7414 247.24 20.5792 247.6 20.4609C247.959 20.3425 248.362 20.2834 248.81 20.2834C249.344 20.2834 249.818 20.3732 250.23 20.5529C250.646 20.7326 250.973 21.0044 251.209 21.3682C251.45 21.7276 251.571 22.1791 251.571 22.7226V25.8852C251.571 26.2095 251.593 26.501 251.637 26.7596C251.685 27.0139 251.753 27.2352 251.841 27.4237V27.5289H250.217C250.142 27.3579 250.083 27.141 250.039 26.878C250 26.6106 249.98 26.352 249.98 26.1021ZM250.21 23.2026L250.223 24.1823H249.086C248.792 24.1823 248.533 24.2108 248.31 24.2677C248.086 24.3203 247.9 24.3992 247.751 24.5044C247.602 24.6096 247.49 24.7368 247.416 24.8858C247.341 25.0348 247.304 25.2036 247.304 25.392C247.304 25.5805 247.348 25.7537 247.435 25.9115C247.523 26.0649 247.65 26.1854 247.817 26.2731C247.988 26.3607 248.194 26.4046 248.435 26.4046C248.759 26.4046 249.042 26.3388 249.283 26.2073C249.528 26.0715 249.721 25.9071 249.862 25.7142C250.002 25.517 250.076 25.3307 250.085 25.1554L250.598 25.8589C250.545 26.0386 250.455 26.2314 250.328 26.4375C250.201 26.6435 250.035 26.8407 249.829 27.0292C249.627 27.2133 249.384 27.3645 249.099 27.4829C248.818 27.6012 248.494 27.6604 248.126 27.6604C247.661 27.6604 247.247 27.5683 246.883 27.3842C246.519 27.1958 246.234 26.9437 246.028 26.6281C245.822 26.3081 245.719 25.9465 245.719 25.5433C245.719 25.1663 245.789 24.8332 245.93 24.5439C246.074 24.2502 246.285 24.0047 246.561 23.8075C246.841 23.6103 247.183 23.4612 247.587 23.3604C247.99 23.2552 248.45 23.2026 248.967 23.2026H250.21ZM254.819 21.7693V27.5289H253.234V20.4149H254.747L254.819 21.7693ZM256.995 20.3688L256.982 21.8416C256.886 21.8241 256.78 21.8109 256.667 21.8022C256.557 21.7934 256.447 21.789 256.338 21.789C256.066 21.789 255.827 21.8285 255.621 21.9074C255.415 21.9819 255.242 22.0915 255.102 22.2361C254.966 22.3764 254.861 22.5473 254.786 22.7489C254.712 22.9506 254.668 23.1763 254.655 23.4262L254.293 23.4525C254.293 23.0054 254.337 22.5911 254.424 22.2098C254.512 21.8285 254.644 21.4931 254.819 21.2038C254.999 20.9146 255.222 20.6888 255.49 20.5266C255.761 20.3645 256.075 20.2834 256.43 20.2834C256.526 20.2834 256.629 20.2921 256.739 20.3097C256.853 20.3272 256.938 20.3469 256.995 20.3688ZM261.578 20.4149V21.572H257.567V20.4149H261.578ZM258.724 18.6725H260.309V25.563C260.309 25.7822 260.34 25.9509 260.401 26.0693C260.467 26.1832 260.557 26.2599 260.671 26.2994C260.785 26.3388 260.918 26.3586 261.072 26.3586C261.181 26.3586 261.286 26.352 261.387 26.3388C261.488 26.3257 261.569 26.3125 261.631 26.2994L261.637 27.5092C261.506 27.5486 261.352 27.5837 261.177 27.6144C261.006 27.645 260.809 27.6604 260.585 27.6604C260.221 27.6604 259.899 27.5968 259.619 27.4697C259.338 27.3382 259.119 27.1256 258.961 26.8319C258.803 26.5383 258.724 26.1482 258.724 25.6616V18.6725Z" fill="black" fill-opacity="0.76"/>
<rect x="8.06367" y="3.06197" width="168.317" height="57.2278" rx="10.0976" fill="white"/>
<rect x="8.59444" y="3.59274" width="167.256" height="56.1663" rx="9.56679" stroke="black" stroke-opacity="0.05" stroke-width="1.06154"/>
<rect x="18.1628" y="16.2968" width="30.7584" height="30.7584" rx="3.41711" fill="#217039"/>
<path d="M27.1082 38.5113H39.9755C41.2912 38.5113 42.1115 37.0844 41.4536 35.9481L35.0199 24.8323C34.362 23.6959 32.7216 23.6959 32.0637 24.8323L25.6301 35.9481C24.9722 37.0844 25.7924 38.5113 27.1082 38.5113ZM33.5418 32.5305C33.0719 32.5305 32.6874 32.146 32.6874 31.6761V29.9672C32.6874 29.4973 33.0719 29.1128 33.5418 29.1128C34.0117 29.1128 34.3962 29.4973 34.3962 29.9672V31.6761C34.3962 32.146 34.0117 32.5305 33.5418 32.5305ZM34.3962 35.9481H32.6874V34.2393H34.3962V35.9481Z" fill="white"/>
<path d="M60.3096 27.4517L57.1405 36.1766H55.8452L59.4943 26.6036H60.3293L60.3096 27.4517ZM62.9658 36.1766L59.7901 27.4517L59.7704 26.6036H60.6054L64.2676 36.1766H62.9658ZM62.8014 32.6328V33.6716H57.4232V32.6328H62.8014ZM66.6872 26.0776V36.1766H65.4643V26.0776H66.6872ZM72.8347 34.9603V31.2981C72.8347 31.0175 72.7777 30.7743 72.6638 30.5682C72.5542 30.3578 72.3876 30.1957 72.1641 30.0817C71.9405 29.9677 71.6644 29.9108 71.3356 29.9108C71.0288 29.9108 70.7592 29.9634 70.5269 30.0686C70.299 30.1738 70.1193 30.3118 69.9878 30.4828C69.8607 30.6537 69.7971 30.8378 69.7971 31.0351H68.5808C68.5808 30.7808 68.6465 30.5288 68.778 30.2789C68.9095 30.0291 69.098 29.8034 69.3434 29.6017C69.5933 29.3957 69.8914 29.2335 70.2376 29.1152C70.5883 28.9925 70.9784 28.9311 71.408 28.9311C71.9252 28.9311 72.381 29.0188 72.7755 29.1941C73.1744 29.3694 73.4856 29.6346 73.7092 29.9897C73.9371 30.3403 74.0511 30.7808 74.0511 31.3112V34.6249C74.0511 34.8616 74.0708 35.1137 74.1102 35.3811C74.1541 35.6484 74.2176 35.8786 74.3009 36.0714V36.1766H73.032C72.9706 36.0364 72.9224 35.8501 72.8873 35.6178C72.8522 35.3811 72.8347 35.1619 72.8347 34.9603ZM73.0451 31.8635L73.0583 32.7182H71.8288C71.4825 32.7182 71.1735 32.7467 70.9017 32.8037C70.6299 32.8563 70.402 32.9374 70.2179 33.047C70.0338 33.1566 69.8935 33.2946 69.7971 33.4612C69.7007 33.6234 69.6525 33.814 69.6525 34.0332C69.6525 34.2568 69.7029 34.4606 69.8037 34.6447C69.9045 34.8288 70.0557 34.9756 70.2574 35.0852C70.4634 35.1904 70.7154 35.243 71.0135 35.243C71.386 35.243 71.7148 35.1641 71.9997 35.0063C72.2846 34.8485 72.5103 34.6556 72.6769 34.4277C72.8479 34.1998 72.9399 33.9784 72.9531 33.7636L73.4725 34.3488C73.4418 34.5329 73.3585 34.7367 73.2226 34.9603C73.0867 35.1838 72.9048 35.3986 72.6769 35.6046C72.4534 35.8062 72.186 35.975 71.8748 36.1109C71.5679 36.2424 71.2217 36.3081 70.8359 36.3081C70.3538 36.3081 69.9308 36.2139 69.567 36.0254C69.2076 35.8369 68.927 35.5849 68.7254 35.2693C68.5282 34.9493 68.4295 34.5921 68.4295 34.1976C68.4295 33.8162 68.5041 33.4809 68.6531 33.1916C68.8021 32.8979 69.0169 32.6547 69.2974 32.4618C69.5779 32.2646 69.9155 32.1155 70.31 32.0147C70.7044 31.9139 71.145 31.8635 71.6315 31.8635H73.0451ZM77.1807 30.1803V36.1766H75.9644V29.0626H77.1478L77.1807 30.1803ZM79.403 29.0231L79.3964 30.154C79.2956 30.1321 79.1992 30.119 79.1071 30.1146C79.0195 30.1058 78.9187 30.1014 78.8047 30.1014C78.5242 30.1014 78.2765 30.1453 78.0617 30.2329C77.847 30.3206 77.6651 30.4433 77.516 30.6011C77.367 30.7589 77.2486 30.9474 77.161 31.1666C77.0777 31.3813 77.0229 31.618 76.9966 31.8766L76.6547 32.0739C76.6547 31.6443 76.6964 31.2411 76.7796 30.8641C76.8673 30.4872 77.001 30.154 77.1807 29.8647C77.3604 29.5711 77.5883 29.3431 77.8645 29.1809C78.145 29.0144 78.4781 28.9311 78.8639 28.9311C78.9515 28.9311 79.0524 28.9421 79.1663 28.964C79.2803 28.9815 79.3592 29.0012 79.403 29.0231ZM81.7371 30.4762V36.1766H80.5142V29.0626H81.6714L81.7371 30.4762ZM81.4873 32.35L80.9218 32.3303C80.9262 31.8438 80.9898 31.3945 81.1125 30.9825C81.2352 30.5661 81.4171 30.2044 81.6582 29.8976C81.8993 29.5908 82.1995 29.3541 82.559 29.1875C82.9184 29.0166 83.3348 28.9311 83.8082 28.9311C84.1413 28.9311 84.4481 28.9793 84.7287 29.0757C85.0092 29.1678 85.2525 29.3146 85.4585 29.5163C85.6645 29.7179 85.8245 29.9765 85.9385 30.2921C86.0524 30.6077 86.1094 30.989 86.1094 31.4361V36.1766H84.893V31.4953C84.893 31.1227 84.8295 30.8247 84.7024 30.6011C84.5796 30.3776 84.4043 30.2154 84.1764 30.1146C83.9485 30.0094 83.6811 29.9568 83.3742 29.9568C83.0148 29.9568 82.7146 30.0203 82.4735 30.1475C82.2324 30.2746 82.0395 30.4499 81.8949 30.6734C81.7503 30.897 81.6451 31.1534 81.5793 31.4427C81.5179 31.7276 81.4873 32.0301 81.4873 32.35ZM86.0962 31.6794L85.281 31.9292C85.2853 31.5391 85.3489 31.1644 85.4716 30.8049C85.5987 30.4455 85.7807 30.1255 86.0173 29.845C86.2584 29.5645 86.5543 29.3431 86.905 29.1809C87.2556 29.0144 87.6567 28.9311 88.1082 28.9311C88.4895 28.9311 88.827 28.9815 89.1207 29.0823C89.4188 29.1831 89.6686 29.3387 89.8702 29.5491C90.0762 29.7552 90.2319 30.0203 90.337 30.3447C90.4422 30.6691 90.4948 31.0548 90.4948 31.5019V36.1766H89.2719V31.4887C89.2719 31.0899 89.2084 30.7808 89.0812 30.5617C88.9585 30.3381 88.7832 30.1825 88.5553 30.0949C88.3317 30.0028 88.0643 29.9568 87.7531 29.9568C87.4857 29.9568 87.249 30.0028 87.043 30.0949C86.837 30.1869 86.6639 30.314 86.5236 30.4762C86.3834 30.634 86.276 30.8159 86.2014 31.0219C86.1313 31.2279 86.0962 31.4471 86.0962 31.6794ZM96.478 34.2896C96.478 34.1143 96.4385 33.9521 96.3596 33.8031C96.2851 33.6497 96.1295 33.5116 95.8928 33.3889C95.6605 33.2618 95.3099 33.1522 94.8408 33.0601C94.4464 32.9768 94.0891 32.8782 93.7691 32.7643C93.4535 32.6503 93.184 32.5122 92.9604 32.35C92.7413 32.1879 92.5725 31.9972 92.4542 31.778C92.3358 31.5589 92.2766 31.3024 92.2766 31.0088C92.2766 30.7282 92.338 30.463 92.4607 30.2132C92.5879 29.9634 92.7654 29.742 92.9933 29.5491C93.2256 29.3563 93.504 29.2051 93.8283 29.0955C94.1527 28.9859 94.5143 28.9311 94.9132 28.9311C95.483 28.9311 95.9695 29.0319 96.3728 29.2335C96.7761 29.4352 97.0851 29.7047 97.2999 30.0423C97.5146 30.3754 97.622 30.7458 97.622 31.1534H96.4057C96.4057 30.9562 96.3465 30.7655 96.2281 30.5814C96.1142 30.3929 95.9454 30.2373 95.7219 30.1146C95.5027 29.9918 95.2331 29.9305 94.9132 29.9305C94.5757 29.9305 94.3017 29.9831 94.0913 30.0883C93.8853 30.1891 93.7341 30.3184 93.6376 30.4762C93.5456 30.634 93.4996 30.8006 93.4996 30.9759C93.4996 31.1074 93.5215 31.2257 93.5653 31.3309C93.6135 31.4317 93.6968 31.526 93.8152 31.6137C93.9335 31.6969 94.1001 31.7758 94.3149 31.8503C94.5296 31.9249 94.8036 31.9994 95.1367 32.0739C95.7197 32.2054 96.1997 32.3632 96.5766 32.5473C96.9536 32.7314 97.2341 32.9571 97.4182 33.2245C97.6023 33.4919 97.6943 33.8162 97.6943 34.1976C97.6943 34.5088 97.6286 34.7937 97.4971 35.0523C97.37 35.3109 97.1837 35.5345 96.9382 35.723C96.6972 35.9071 96.4079 36.0517 96.0703 36.1569C95.7372 36.2577 95.3625 36.3081 94.946 36.3081C94.3192 36.3081 93.7889 36.1963 93.3549 35.9728C92.921 35.7493 92.5922 35.46 92.3687 35.1049C92.1451 34.7499 92.0334 34.3751 92.0334 33.9806H93.2563C93.2738 34.3137 93.3703 34.5789 93.5456 34.7762C93.7209 34.969 93.9357 35.1071 94.1899 35.1904C94.4442 35.2693 94.6962 35.3087 94.946 35.3087C95.2792 35.3087 95.5575 35.2649 95.7811 35.1772C96.009 35.0896 96.1821 34.969 96.3005 34.8156C96.4188 34.6622 96.478 34.4869 96.478 34.2896ZM108.596 33.1324H109.858C109.792 33.7373 109.619 34.2787 109.338 34.7564C109.058 35.2342 108.661 35.6134 108.148 35.8939C107.636 36.17 106.996 36.3081 106.229 36.3081C105.667 36.3081 105.157 36.2029 104.697 35.9925C104.241 35.7821 103.848 35.4841 103.52 35.0983C103.191 34.7082 102.937 34.2414 102.757 33.6979C102.582 33.15 102.494 32.5407 102.494 31.8701V30.9167C102.494 30.2461 102.582 29.639 102.757 29.0955C102.937 28.5476 103.193 28.0786 103.526 27.6884C103.864 27.2983 104.269 26.9981 104.743 26.7877C105.216 26.5773 105.749 26.4721 106.34 26.4721C107.064 26.4721 107.675 26.608 108.175 26.8797C108.674 27.1515 109.062 27.5285 109.338 28.0106C109.619 28.4884 109.792 29.0429 109.858 29.6741H108.596C108.534 29.227 108.42 28.8434 108.254 28.5235C108.087 28.1991 107.85 27.9492 107.544 27.7739C107.237 27.5986 106.836 27.5109 106.34 27.5109C105.915 27.5109 105.54 27.592 105.216 27.7542C104.896 27.9164 104.626 28.1465 104.407 28.4446C104.193 28.7426 104.03 29.0999 103.921 29.5163C103.811 29.9327 103.756 30.3951 103.756 30.9036V31.8701C103.756 32.3391 103.805 32.7796 103.901 33.1916C104.002 33.6036 104.153 33.9653 104.355 34.2765C104.556 34.5877 104.813 34.8332 105.124 35.0129C105.435 35.1882 105.803 35.2759 106.229 35.2759C106.768 35.2759 107.197 35.1904 107.517 35.0194C107.837 34.8485 108.078 34.603 108.24 34.2831C108.407 33.9631 108.525 33.5795 108.596 33.1324ZM111.081 32.6985V32.5473C111.081 32.0344 111.155 31.5589 111.304 31.1205C111.453 30.6778 111.668 30.2943 111.949 29.9699C112.229 29.6412 112.569 29.387 112.968 29.2072C113.367 29.0231 113.814 28.9311 114.309 28.9311C114.809 28.9311 115.258 29.0231 115.657 29.2072C116.06 29.387 116.402 29.6412 116.683 29.9699C116.968 30.2943 117.184 30.6778 117.334 31.1205C117.483 31.5589 117.557 32.0344 117.557 32.5473V32.6985C117.557 33.2113 117.483 33.6869 117.334 34.1253C117.184 34.5636 116.968 34.9471 116.683 35.2759C116.402 35.6002 116.062 35.8545 115.664 36.0385C115.269 36.2183 114.822 36.3081 114.322 36.3081C113.823 36.3081 113.373 36.2183 112.974 36.0385C112.575 35.8545 112.234 35.6002 111.949 35.2759C111.668 34.9471 111.453 34.5636 111.304 34.1253C111.155 33.6869 111.081 33.2113 111.081 32.6985ZM112.297 32.5473V32.6985C112.297 33.0536 112.339 33.3889 112.422 33.7045C112.505 34.0157 112.63 34.2918 112.797 34.5329C112.968 34.774 113.18 34.9647 113.435 35.1049C113.689 35.2408 113.985 35.3087 114.322 35.3087C114.655 35.3087 114.947 35.2408 115.197 35.1049C115.451 34.9647 115.661 34.774 115.828 34.5329C115.994 34.2918 116.119 34.0157 116.203 33.7045C116.29 33.3889 116.334 33.0536 116.334 32.6985V32.5473C116.334 32.1966 116.29 31.8657 116.203 31.5545C116.119 31.2389 115.992 30.9605 115.821 30.7195C115.655 30.474 115.444 30.2811 115.19 30.1409C114.94 30.0006 114.647 29.9305 114.309 29.9305C113.976 29.9305 113.682 30.0006 113.428 30.1409C113.178 30.2811 112.968 30.474 112.797 30.7195C112.63 30.9605 112.505 31.2389 112.422 31.5545C112.339 31.8657 112.297 32.1966 112.297 32.5473ZM123.435 34.5329V29.0626H124.658V36.1766H123.494L123.435 34.5329ZM123.665 33.0338L124.171 33.0207C124.171 33.4941 124.121 33.9324 124.02 34.3357C123.924 34.7345 123.766 35.0808 123.547 35.3745C123.328 35.6682 123.041 35.8983 122.685 36.0648C122.33 36.227 121.899 36.3081 121.39 36.3081C121.044 36.3081 120.726 36.2577 120.437 36.1569C120.152 36.0561 119.906 35.9005 119.7 35.6901C119.494 35.4797 119.334 35.2057 119.221 34.8682C119.111 34.5307 119.056 34.1253 119.056 33.6519V29.0626H120.272V33.665C120.272 33.985 120.308 34.2502 120.378 34.4606C120.452 34.6666 120.551 34.831 120.674 34.9537C120.801 35.072 120.941 35.1553 121.094 35.2035C121.252 35.2518 121.414 35.2759 121.581 35.2759C122.098 35.2759 122.508 35.1772 122.81 34.98C123.113 34.7784 123.33 34.5088 123.461 34.1713C123.597 33.8294 123.665 33.4502 123.665 33.0338ZM127.728 30.5814V36.1766H126.512V29.0626H127.663L127.728 30.5814ZM127.439 32.35L126.933 32.3303C126.937 31.8438 127.01 31.3945 127.15 30.9825C127.29 30.5661 127.487 30.2044 127.742 29.8976C127.996 29.5908 128.298 29.3541 128.649 29.1875C129.004 29.0166 129.396 28.9311 129.826 28.9311C130.176 28.9311 130.492 28.9793 130.773 29.0757C131.053 29.1678 131.292 29.3168 131.489 29.5228C131.691 29.7289 131.844 29.9962 131.949 30.325C132.055 30.6493 132.107 31.046 132.107 31.515V36.1766H130.884V31.5019C130.884 31.1293 130.83 30.8312 130.72 30.6077C130.61 30.3798 130.45 30.2154 130.24 30.1146C130.03 30.0094 129.771 29.9568 129.464 29.9568C129.162 29.9568 128.886 30.0203 128.636 30.1475C128.39 30.2746 128.178 30.4499 127.998 30.6734C127.823 30.897 127.685 31.1534 127.584 31.4427C127.487 31.7276 127.439 32.0301 127.439 32.35ZM136.933 29.0626V29.9962H133.087V29.0626H136.933ZM134.389 27.3334H135.605V34.4146C135.605 34.6556 135.642 34.8375 135.717 34.9603C135.791 35.083 135.888 35.1641 136.006 35.2035C136.125 35.243 136.252 35.2627 136.388 35.2627C136.488 35.2627 136.594 35.2539 136.703 35.2364C136.817 35.2145 136.903 35.197 136.96 35.1838L136.966 36.1766C136.87 36.2073 136.743 36.2358 136.585 36.2621C136.431 36.2928 136.245 36.3081 136.026 36.3081C135.728 36.3081 135.454 36.2489 135.204 36.1306C134.954 36.0122 134.755 35.815 134.606 35.5389C134.461 35.2583 134.389 34.8814 134.389 34.408V27.3334Z" fill="black" fill-opacity="0.76"/>
<path d="M156.145 30.2978H157.328C157.788 30.2978 158.169 30.2183 158.47 30.0595C158.777 29.9006 159.005 29.6814 159.153 29.402C159.301 29.1225 159.375 28.802 159.375 28.4404C159.375 28.0623 159.306 27.7391 159.169 27.4706C159.038 27.1966 158.835 26.9857 158.561 26.8378C158.292 26.6898 157.95 26.6159 157.534 26.6159C157.183 26.6159 156.865 26.6871 156.58 26.8295C156.301 26.9665 156.079 27.1638 155.914 27.4213C155.75 27.6733 155.668 27.9747 155.668 28.3253H153.679C153.679 27.6898 153.846 27.1254 154.18 26.6323C154.515 26.1392 154.969 25.7529 155.545 25.4735C156.125 25.1886 156.777 25.0461 157.501 25.0461C158.273 25.0461 158.947 25.1749 159.522 25.4324C160.103 25.6844 160.555 26.0625 160.879 26.5665C161.202 27.0706 161.363 27.6952 161.363 28.4404C161.363 28.7801 161.284 29.1253 161.125 29.4759C160.966 29.8266 160.731 30.1471 160.418 30.4375C160.106 30.7224 159.717 30.9553 159.251 31.1361C158.786 31.3114 158.246 31.3991 157.632 31.3991H156.145V30.2978ZM156.145 31.8429V30.758H157.632C158.334 30.758 158.931 30.8402 159.424 31.0046C159.922 31.169 160.328 31.3963 160.64 31.6867C160.952 31.9716 161.18 32.2977 161.322 32.6648C161.47 33.0318 161.544 33.4209 161.544 33.8318C161.544 34.3907 161.443 34.8893 161.24 35.3276C161.043 35.7604 160.761 36.1275 160.394 36.4289C160.027 36.7302 159.596 36.9576 159.103 37.111C158.616 37.2644 158.084 37.3411 157.509 37.3411C156.994 37.3411 156.501 37.2699 156.03 37.1275C155.558 36.985 155.136 36.7741 154.764 36.4946C154.391 36.2097 154.095 35.8563 153.876 35.4344C153.663 35.0071 153.556 34.5139 153.556 33.9551H155.536C155.536 34.3112 155.619 34.6263 155.783 34.9002C155.953 35.1687 156.188 35.3796 156.49 35.533C156.797 35.6865 157.147 35.7632 157.542 35.7632C157.958 35.7632 158.317 35.6892 158.618 35.5413C158.92 35.3933 159.15 35.1742 159.309 34.8838C159.473 34.5934 159.555 34.2427 159.555 33.8318C159.555 33.3661 159.465 32.988 159.284 32.6976C159.103 32.4072 158.846 32.1936 158.512 32.0566C158.177 31.9141 157.783 31.8429 157.328 31.8429H156.145Z" fill="#217039"/>
<rect x="8.06367" y="77.1215" width="168.317" height="201.98" rx="10.0976" fill="white"/>
<rect x="7.5329" y="76.5907" width="169.379" height="203.042" rx="10.6283" stroke="black" stroke-opacity="0.05" stroke-width="1.06154"/>
<path d="M92.2218 129.3C125.687 129.3 152.816 156.429 152.816 189.894C152.816 223.359 125.687 250.488 92.2218 250.488C58.7565 250.488 31.6276 223.359 31.6276 189.894C31.6276 156.429 58.7565 129.3 92.2218 129.3ZM92.2218 235.34C117.321 235.34 137.667 214.993 137.667 189.894C137.667 164.795 117.321 144.449 92.2218 144.449C67.1228 144.449 46.7762 164.795 46.7762 189.894C46.7762 214.993 67.1228 235.34 92.2218 235.34Z" fill="black" fill-opacity="0.06"/>
<path d="M94.0721 136.907C94.2181 132.726 97.7402 129.407 101.87 130.073C109.401 131.288 116.658 133.917 123.249 137.846C132.015 143.072 139.32 150.428 144.485 159.232C149.65 168.035 152.507 178 152.792 188.202C153.007 195.873 151.762 203.49 149.148 210.656C147.715 214.586 143.099 216.042 139.378 214.13C135.658 212.217 134.26 207.66 135.528 203.674C137.069 198.829 137.793 193.743 137.65 188.625C137.436 180.974 135.293 173.5 131.419 166.897C127.546 160.295 122.067 154.778 115.492 150.858C111.094 148.237 106.302 146.387 101.321 145.369C97.2221 144.531 93.9261 141.087 94.0721 136.907Z" fill="#44C66B"/>
<path d="M90.3714 136.907C90.2254 132.726 86.7032 129.407 82.5735 130.073C74.7287 131.338 67.1839 134.139 60.3813 138.34C51.4231 143.873 44.0613 151.644 39.0211 160.888C33.981 170.132 31.4367 180.53 31.6388 191.057C31.8409 201.584 34.7826 211.877 40.1738 220.921C45.5651 229.965 53.2199 237.448 62.3838 242.633C71.5477 247.817 81.9044 250.525 92.4332 250.488C102.962 250.451 113.3 247.671 122.427 242.423C129.358 238.437 135.41 233.132 140.254 226.834C142.804 223.518 141.56 218.841 137.952 216.724C134.344 214.607 129.747 215.868 127.061 219.075C123.644 223.155 119.523 226.618 114.876 229.291C108.03 233.227 100.277 235.312 92.3804 235.339C84.4837 235.367 76.7162 233.336 69.8433 229.448C62.9703 225.559 57.2292 219.947 53.1858 213.164C49.1424 206.381 46.9361 198.662 46.7845 190.767C46.6329 182.871 48.5412 175.073 52.3213 168.14C56.1014 161.206 61.6228 155.378 68.3414 151.228C72.9027 148.411 77.9088 146.434 83.1229 145.369C87.2214 144.531 90.5174 141.087 90.3714 136.907Z" fill="#217039"/>
<path d="M25.2828 101.589H23.238L23.2511 100.281H25.2828C25.8745 100.281 26.3698 100.151 26.7687 99.8926C27.1719 99.634 27.4744 99.2636 27.676 98.7814C27.882 98.2993 27.985 97.7251 27.985 97.0588V96.5394C27.985 96.0222 27.9259 95.5641 27.8075 95.1653C27.6936 94.7664 27.5226 94.4311 27.2947 94.1593C27.0711 93.8875 26.795 93.6815 26.4662 93.5413C26.1419 93.401 25.7671 93.3309 25.3419 93.3309H23.1985V92.0159H25.3419C25.9775 92.0159 26.5583 92.1233 27.0843 92.3381C27.6103 92.5485 28.0639 92.8531 28.4453 93.252C28.831 93.6508 29.1269 94.1286 29.3329 94.6853C29.5389 95.242 29.6419 95.8644 29.6419 96.5526V97.0588C29.6419 97.747 29.5389 98.3694 29.3329 98.9261C29.1269 99.4828 28.831 99.9605 28.4453 100.359C28.0596 100.754 27.5993 101.059 27.0646 101.273C26.5342 101.484 25.9403 101.589 25.2828 101.589ZM24.1519 92.0159V101.589H22.5016V92.0159H24.1519ZM30.8385 98.1108V97.9596C30.8385 97.4467 30.9131 96.9712 31.0621 96.5328C31.2111 96.0901 31.4259 95.7066 31.7064 95.3822C31.9913 95.0535 32.3376 94.7993 32.7453 94.6195C33.1573 94.4354 33.6219 94.3434 34.1391 94.3434C34.6607 94.3434 35.1254 94.4354 35.533 94.6195C35.945 94.7993 36.2935 95.0535 36.5784 95.3822C36.8633 95.7066 37.0803 96.0901 37.2293 96.5328C37.3784 96.9712 37.4529 97.4467 37.4529 97.9596V98.1108C37.4529 98.6236 37.3784 99.0992 37.2293 99.5376C37.0803 99.9759 36.8633 100.359 36.5784 100.688C36.2935 101.013 35.9472 101.267 35.5396 101.451C35.1319 101.631 34.6695 101.72 34.1523 101.72C33.6307 101.72 33.1639 101.631 32.7518 101.451C32.3442 101.267 31.9979 101.013 31.713 100.688C31.4281 100.359 31.2111 99.9759 31.0621 99.5376C30.9131 99.0992 30.8385 98.6236 30.8385 98.1108ZM32.4231 97.9596V98.1108C32.4231 98.4308 32.456 98.7332 32.5217 99.0181C32.5875 99.303 32.6905 99.5529 32.8307 99.7677C32.971 99.9825 33.1507 100.151 33.3699 100.274C33.589 100.397 33.8498 100.458 34.1523 100.458C34.446 100.458 34.7002 100.397 34.915 100.274C35.1341 100.151 35.3138 99.9825 35.4541 99.7677C35.5944 99.5529 35.6974 99.303 35.7631 99.0181C35.8333 98.7332 35.8683 98.4308 35.8683 98.1108V97.9596C35.8683 97.644 35.8333 97.3459 35.7631 97.0654C35.6974 96.7805 35.5922 96.5284 35.4475 96.3093C35.3073 96.0901 35.1276 95.9192 34.9084 95.7964C34.6936 95.6693 34.4372 95.6058 34.1391 95.6058C33.8411 95.6058 33.5825 95.6693 33.3633 95.7964C33.1485 95.9192 32.971 96.0901 32.8307 96.3093C32.6905 96.5284 32.5875 96.7805 32.5217 97.0654C32.456 97.3459 32.4231 97.644 32.4231 97.9596ZM40.3524 95.9937V101.589H38.7679V94.4749H40.2603L40.3524 95.9937ZM40.0697 97.7689L39.5568 97.7623C39.5612 97.2583 39.6314 96.7958 39.7672 96.375C39.9075 95.9542 40.1004 95.5926 40.3458 95.2902C40.5957 94.9877 40.8937 94.7554 41.24 94.5932C41.5863 94.4267 41.972 94.3434 42.3972 94.3434C42.7391 94.3434 43.0481 94.3916 43.3242 94.488C43.6048 94.5801 43.8437 94.7313 44.0409 94.9417C44.2425 95.1521 44.396 95.4261 44.5011 95.7636C44.6063 96.0967 44.6589 96.5065 44.6589 96.9931V101.589H43.0678V96.9865C43.0678 96.6446 43.0174 96.375 42.9166 96.1778C42.8202 95.9762 42.6777 95.8337 42.4892 95.7504C42.3051 95.6628 42.075 95.6189 41.7989 95.6189C41.5271 95.6189 41.2838 95.6759 41.0691 95.7899C40.8543 95.9038 40.6724 96.0594 40.5233 96.2567C40.3787 96.4539 40.2669 96.6819 40.188 96.9405C40.1091 97.1991 40.0697 97.4752 40.0697 97.7689ZM50.5566 99.9123V94.4749H52.1477V101.589H50.6487L50.5566 99.9123ZM50.7802 98.433L51.3127 98.4198C51.3127 98.8976 51.2601 99.3381 51.1549 99.7414C51.0497 100.14 50.8876 100.489 50.6684 100.787C50.4492 101.08 50.1687 101.311 49.8268 101.477C49.4849 101.639 49.0751 101.72 48.5973 101.72C48.251 101.72 47.9332 101.67 47.6439 101.569C47.3546 101.468 47.1048 101.313 46.8944 101.102C46.6884 100.892 46.5284 100.618 46.4144 100.281C46.3005 99.943 46.2435 99.5397 46.2435 99.0707V94.4749H47.828V99.0839C47.828 99.3425 47.8587 99.5595 47.9201 99.7348C47.9815 99.9057 48.0647 100.044 48.1699 100.149C48.2751 100.254 48.3979 100.329 48.5381 100.373C48.6784 100.416 48.8274 100.438 48.9852 100.438C49.4367 100.438 49.7917 100.351 50.0504 100.175C50.3133 99.9956 50.4996 99.7545 50.6092 99.4521C50.7232 99.1496 50.7802 98.8099 50.7802 98.433ZM57.0329 94.4749V95.6321H53.0222V94.4749H57.0329ZM54.1794 92.7325H55.7639V99.623C55.7639 99.8422 55.7946 100.011 55.856 100.129C55.9217 100.243 56.0116 100.32 56.1255 100.359C56.2395 100.399 56.3732 100.419 56.5266 100.419C56.6362 100.419 56.7414 100.412 56.8422 100.399C56.943 100.386 57.0241 100.373 57.0855 100.359L57.0921 101.569C56.9606 101.609 56.8071 101.644 56.6318 101.674C56.4609 101.705 56.2636 101.72 56.0401 101.72C55.6763 101.72 55.3541 101.657 55.0736 101.53C54.793 101.398 54.5739 101.186 54.4161 100.892C54.2583 100.598 54.1794 100.208 54.1794 99.7216V92.7325ZM67.4212 98.4724H69.0649C69.0123 99.0992 68.837 99.6581 68.5389 100.149C68.2409 100.636 67.8223 101.019 67.2831 101.3C66.744 101.58 66.0887 101.72 65.3172 101.72C64.7255 101.72 64.1929 101.615 63.7195 101.405C63.2461 101.19 62.8407 100.888 62.5032 100.497C62.1657 100.103 61.9071 99.6274 61.7273 99.0707C61.552 98.5141 61.4643 97.8916 61.4643 97.2035V96.4079C61.4643 95.7197 61.5542 95.0973 61.7339 94.5406C61.918 93.984 62.181 93.5084 62.5229 93.1139C62.8648 92.715 63.2746 92.4104 63.7524 92.2C64.2346 91.9896 64.7759 91.8844 65.3764 91.8844C66.1391 91.8844 66.7834 92.0247 67.3094 92.3052C67.8354 92.5857 68.2431 92.9736 68.5323 93.4689C68.826 93.9642 69.0057 94.5319 69.0715 95.1718H67.4278C67.3839 94.7598 67.2875 94.407 67.1385 94.1133C66.9938 93.8196 66.779 93.596 66.4941 93.4426C66.2092 93.2848 65.8366 93.2059 65.3764 93.2059C64.9994 93.2059 64.6707 93.2761 64.3902 93.4163C64.1096 93.5566 63.8751 93.7626 63.6867 94.0344C63.4982 94.3061 63.3557 94.6415 63.2593 95.0403C63.1672 95.4348 63.1212 95.8863 63.1212 96.3948V97.2035C63.1212 97.6856 63.1629 98.124 63.2461 98.5184C63.3338 98.9086 63.4653 99.2439 63.6406 99.5244C63.8203 99.8049 64.0483 100.022 64.3244 100.175C64.6006 100.329 64.9315 100.405 65.3172 100.405C65.7862 100.405 66.1654 100.331 66.4547 100.182C66.7484 100.033 66.9697 99.8159 67.1187 99.531C67.2722 99.2417 67.373 98.8888 67.4212 98.4724ZM71.971 91.4899V101.589H70.393V91.4899H71.971ZM71.6949 97.7689L71.182 97.7623C71.1864 97.2714 71.2544 96.8177 71.3859 96.4013C71.5217 95.9849 71.7102 95.6233 71.9513 95.3165C72.1968 95.0053 72.4904 94.7664 72.8323 94.5998C73.1742 94.4289 73.5534 94.3434 73.9698 94.3434C74.3204 94.3434 74.636 94.3916 74.9166 94.488C75.2015 94.5845 75.4469 94.7401 75.653 94.9549C75.859 95.1653 76.0146 95.4414 76.1198 95.7833C76.2294 96.1208 76.2841 96.5328 76.2841 97.0194V101.589H74.693V97.0062C74.693 96.6643 74.6426 96.3926 74.5418 96.1909C74.4454 95.9893 74.3029 95.8447 74.1144 95.757C73.9259 95.6649 73.6958 95.6189 73.4241 95.6189C73.1392 95.6189 72.8871 95.6759 72.668 95.7899C72.4532 95.9038 72.2735 96.0594 72.1288 96.2567C71.9842 96.4539 71.8746 96.6819 71.8001 96.9405C71.7299 97.1991 71.6949 97.4752 71.6949 97.7689ZM81.8991 100.162V96.7695C81.8991 96.5153 81.8531 96.2961 81.761 96.112C81.669 95.9279 81.5287 95.7855 81.3402 95.6847C81.1561 95.5839 80.9238 95.5334 80.6433 95.5334C80.3847 95.5334 80.1611 95.5773 79.9726 95.6649C79.7842 95.7526 79.6373 95.871 79.5321 96.02C79.4269 96.169 79.3743 96.3378 79.3743 96.5263H77.7964C77.7964 96.2457 77.8643 95.974 78.0002 95.711C78.1361 95.448 78.3333 95.2135 78.5919 95.0075C78.8505 94.8014 79.1596 94.6393 79.519 94.5209C79.8784 94.4026 80.2817 94.3434 80.7288 94.3434C81.2635 94.3434 81.7369 94.4333 82.1489 94.613C82.5653 94.7927 82.8919 95.0644 83.1286 95.4282C83.3697 95.7877 83.4902 96.2392 83.4902 96.7827V99.9452C83.4902 100.27 83.5121 100.561 83.556 100.82C83.6042 101.074 83.6721 101.295 83.7598 101.484V101.589H82.1358C82.0613 101.418 82.0021 101.201 81.9583 100.938C81.9188 100.671 81.8991 100.412 81.8991 100.162ZM82.1292 97.2626L82.1424 98.2423H81.0049C80.7112 98.2423 80.4526 98.2708 80.2291 98.3278C80.0055 98.3804 79.8192 98.4593 79.6702 98.5645C79.5212 98.6697 79.4094 98.7968 79.3349 98.9458C79.2604 99.0948 79.2231 99.2636 79.2231 99.4521C79.2231 99.6406 79.2669 99.8137 79.3546 99.9715C79.4423 100.125 79.5694 100.245 79.736 100.333C79.9069 100.421 80.1129 100.465 80.354 100.465C80.6784 100.465 80.9611 100.399 81.2022 100.267C81.4476 100.131 81.6405 99.9671 81.7807 99.7742C81.921 99.577 81.9955 99.3907 82.0043 99.2154L82.5171 99.9189C82.4645 100.099 82.3747 100.291 82.2476 100.497C82.1204 100.703 81.9539 100.901 81.7479 101.089C81.5462 101.273 81.303 101.425 81.0181 101.543C80.7375 101.661 80.4132 101.72 80.045 101.72C79.5803 101.72 79.1661 101.628 78.8023 101.444C78.4385 101.256 78.1536 101.004 77.9476 100.688C77.7416 100.368 77.6386 100.007 77.6386 99.6033C77.6386 99.2263 77.7087 98.8932 77.849 98.6039C77.9936 98.3102 78.204 98.0648 78.4801 97.8675C78.7607 97.6703 79.1026 97.5213 79.5058 97.4204C79.9091 97.3152 80.3693 97.2626 80.8866 97.2626H82.1292ZM86.7382 95.8293V101.589H85.1537V94.4749H86.6659L86.7382 95.8293ZM88.9145 94.4289L88.9013 95.9016C88.8049 95.8841 88.6997 95.871 88.5857 95.8622C88.4762 95.8534 88.3666 95.849 88.257 95.849C87.9852 95.849 87.7464 95.8885 87.5403 95.9674C87.3343 96.0419 87.1612 96.1515 87.0209 96.2961C86.885 96.4364 86.7798 96.6073 86.7053 96.809C86.6308 97.0106 86.587 97.2363 86.5738 97.4862L86.2122 97.5125C86.2122 97.0654 86.256 96.6512 86.3437 96.2698C86.4314 95.8885 86.5629 95.5532 86.7382 95.2639C86.9179 94.9746 87.1415 94.7488 87.4088 94.5867C87.6806 94.4245 87.994 94.3434 88.3491 94.3434C88.4455 94.3434 88.5485 94.3522 88.6581 94.3697C88.772 94.3872 88.8575 94.407 88.9145 94.4289ZM93.4972 94.4749V95.6321H89.4865V94.4749H93.4972ZM90.6437 92.7325H92.2282V99.623C92.2282 99.8422 92.2589 100.011 92.3203 100.129C92.386 100.243 92.4759 100.32 92.5899 100.359C92.7038 100.399 92.8375 100.419 92.9909 100.419C93.1005 100.419 93.2057 100.412 93.3065 100.399C93.4073 100.386 93.4884 100.373 93.5498 100.359L93.5564 101.569C93.4249 101.609 93.2714 101.644 93.0961 101.674C92.9252 101.705 92.7279 101.72 92.5044 101.72C92.1406 101.72 91.8184 101.657 91.5379 101.53C91.2573 101.398 91.0382 101.186 90.8804 100.892C90.7226 100.598 90.6437 100.208 90.6437 99.7216V92.7325Z" fill="black" fill-opacity="0.76"/>
</g>
<defs>
<filter id="filter0_ddd_17135_46044" x="0" y="0" width="621" height="299.166" filterUnits="userSpaceOnUse" color-interpolation-filters="sRGB">
<feFlood flood-opacity="0" result="BackgroundImageFix"/>
<feColorMatrix in="SourceAlpha" type="matrix" values="0 0 0 0 0 0 0 0 0 0 0 0 0 0 0 0 0 0 127 0" result="hardAlpha"/>
<feOffset dy="1"/>
<feGaussianBlur stdDeviation="1.5"/>
<feColorMatrix type="matrix" values="0 0 0 0 0 0 0 0 0 0 0 0 0 0 0 0 0 0 0.03 0"/>
<feBlend mode="normal" in2="BackgroundImageFix" result="effect1_dropShadow_17135_46044"/>
<feColorMatrix in="SourceAlpha" type="matrix" values="0 0 0 0 0 0 0 0 0 0 0 0 0 0 0 0 0 0 127 0" result="hardAlpha"/>
<feOffset dy="5"/>
<feGaussianBlur stdDeviation="2.5"/>
<feColorMatrix type="matrix" values="0 0 0 0 0 0 0 0 0 0 0 0 0 0 0 0 0 0 0.03 0"/>
<feBlend mode="normal" in2="effect1_dropShadow_17135_46044" result="effect2_dropShadow_17135_46044"/>
<feColorMatrix in="SourceAlpha" type="matrix" values="0 0 0 0 0 0 0 0 0 0 0 0 0 0 0 0 0 0 127 0" result="hardAlpha"/>
<feOffset dy="12"/>
<feGaussianBlur stdDeviation="3.5"/>
<feColorMatrix type="matrix" values="0 0 0 0 0 0 0 0 0 0 0 0 0 0 0 0 0 0 0.02 0"/>
<feBlend mode="normal" in2="effect2_dropShadow_17135_46044" result="effect3_dropShadow_17135_46044"/>
<feBlend mode="normal" in="SourceGraphic" in2="effect3_dropShadow_17135_46044" result="shape"/>
</filter>
<clipPath id="clip0_17135_46044">
<path d="M264.749 129.596H281.668V253.712H264.749V129.596Z" fill="white"/>
</clipPath>
<clipPath id="clip1_17135_46044">
<path d="M358.407 64.9508H375.326V253.711H358.407V64.9508Z" fill="white"/>
</clipPath>
<clipPath id="clip2_17135_46044">
<path d="M451.462 88.2247H468.381V253.713H451.462V88.2247Z" fill="white"/>
</clipPath>
<clipPath id="clip3_17135_46044">
<path d="M281.06 75.4367H297.979V253.854H281.06V75.4367Z" fill="white"/>
</clipPath>
<clipPath id="clip4_17135_46044">
<path d="M375.324 115.517H391.034V253.854H375.324V115.517Z" fill="white"/>
</clipPath>
<clipPath id="clip5_17135_46044">
<path d="M468.376 75.2951H485.295V253.712H468.376V75.2951Z" fill="white"/>
</clipPath>
<clipPath id="clip6_17135_46044">
<path d="M298.268 100.706H315.099V253.874H298.268V100.706Z" fill="white"/>
</clipPath>
<clipPath id="clip7_17135_46044">
<path d="M390.846 134.369H407.677V253.874H390.846V134.369Z" fill="white"/>
</clipPath>
<clipPath id="clip8_17135_46044">
<path d="M485.101 105.755H501.933V253.874H485.101V105.755Z" fill="white"/>
</clipPath>
<clipPath id="clip9_17135_46044">
<path d="M314.897 102.587H330.607V253.854H314.897V102.587Z" fill="white"/>
</clipPath>
<clipPath id="clip10_17135_46044">
<path d="M407.952 150.282H424.87V253.712H407.952V150.282Z" fill="white"/>
</clipPath>
<clipPath id="clip11_17135_46044">
<path d="M502.213 124.423H519.132V253.711H502.213V124.423Z" fill="white"/>
</clipPath>
</defs>
</svg>
